<svg width="608" height="506" viewBox="0 0 608 506" fill="none" xmlns="http://www.w3.org/2000/svg">
<ellipse cx="370" cy="272.5" rx="238" ry="233.5" fill="#0097E6"/>
<ellipse cx="182.5" cy="179" rx="182.5" ry="179" fill="#0097E6"/>
<g clip-path="url(#clip0)">
<path d="M450.264 162.144H198.108V323.636H450.264V162.144Z" fill="#E6E6E6"/>
<path d="M443.053 182.398H205.318V314.081H443.053V182.398Z" fill="white"/>
<path d="M450.156 162H198V172.713H450.156V162Z" fill="#6C63FF"/>
<path d="M205.961 169.462C207.057 169.462 207.946 168.573 207.946 167.477C207.946 166.38 207.057 165.491 205.961 165.491C204.864 165.491 203.975 166.38 203.975 167.477C203.975 168.573 204.864 169.462 205.961 169.462Z" fill="white"/>
<path d="M213.497 169.462C214.594 169.462 215.483 168.573 215.483 167.477C215.483 166.38 214.594 165.491 213.497 165.491C212.4 165.491 211.512 166.38 211.512 167.477C211.512 168.573 212.4 169.462 213.497 169.462Z" fill="white"/>
<path d="M221.033 169.462C222.13 169.462 223.019 168.573 223.019 167.477C223.019 166.38 222.13 165.491 221.033 165.491C219.937 165.491 219.048 166.38 219.048 167.477C219.048 168.573 219.937 169.462 221.033 169.462Z" fill="white"/>
<path d="M281.066 193.229H234.569V243.674H281.066V193.229Z" fill="#E6E6E6"/>
<path d="M347.434 193.229H300.936V243.674H347.434V193.229Z" fill="#E6E6E6"/>
<path d="M413.801 193.229H367.304V243.674H413.801V193.229Z" fill="#E6E6E6"/>
<path d="M281.066 252.805H234.569V303.251H281.066V252.805Z" fill="#E6E6E6"/>
<path d="M347.434 252.805H300.936V303.251H347.434V252.805Z" fill="#E6E6E6"/>
<path d="M413.801 252.805H367.304V303.251H413.801V252.805Z" fill="#E6E6E6"/>
<path d="M312.175 265.77L320.67 262.412L321.658 279.205C321.658 279.205 323.436 284.342 322.844 286.318C322.844 286.318 323.239 289.677 322.251 289.874C321.263 290.072 318.497 290.467 318.299 290.269C318.102 290.072 318.102 289.479 318.102 289.479C318.102 289.479 316.126 290.862 315.929 292.443C315.929 292.443 307.631 295.011 307.433 292.64C307.235 290.269 311.582 288.293 311.582 288.293L314.941 283.157L312.175 265.77Z" fill="white"/>
<path d="M330.154 265.77L338.649 262.412L339.637 279.205C339.637 279.205 341.415 284.342 340.823 286.318C340.823 286.318 341.218 289.677 340.23 289.874C339.242 290.072 336.476 290.467 336.278 290.269C336.081 290.072 336.081 289.479 336.081 289.479C336.081 289.479 334.105 290.862 333.908 292.443C333.908 292.443 325.61 295.011 325.412 292.64C325.214 290.269 329.561 288.293 329.561 288.293L332.92 283.157L330.154 265.77Z" fill="white"/>
<path d="M330.985 200.919C330.985 200.919 329.176 205.973 331.272 208.253L329.524 214.257C329.524 214.257 335.733 232.882 333.959 235.484C333.959 235.484 327.337 238.795 314.092 234.302L319.473 213.43L318.704 204.62L319.768 200.481L322.134 200.244C322.134 200.244 320.714 205.566 323.316 206.393C325.918 207.221 328.456 200.377 328.456 200.377L330.985 200.919Z" fill="#3F3D56"/>
<path d="M247.444 233.549L249.727 234.483L260.622 220.164L264.046 236.974L266.329 236.559C267.794 222.066 268.988 207.284 267.523 200.293L259.066 199.93L255.227 212.174L253.359 220.475L247.444 233.549Z" fill="white"/>
<path d="M385.996 200.177C385.996 200.177 382.881 204.508 383.033 206.256C383.185 208.003 385.16 236.499 385.16 236.499L389.795 236.727L388.428 216.21L389.567 210.663L392.379 236.499L398.078 236.651L392.987 203.14L391.999 200.177L385.996 200.177Z" fill="white"/>
<path d="M403.604 269.952C402.777 268.96 401.355 268.423 399.99 268.133C400.031 268.009 395.837 267.142 395.767 267.321L394.186 266.062L389.331 268.584L386.602 266.726L385.334 267.176C385.386 266.952 381.399 267.643 381.399 267.643C380.638 267.67 379.665 267.718 378.576 267.801C374.763 268.095 374.47 277.969 374.47 277.969C376.224 277.251 378.095 276.86 379.99 276.813L381.02 288.626C386.321 288.171 391.88 288.7 397.641 289.994L400.343 280.71L406.635 278.262C406.635 278.262 405.56 272.299 403.604 269.952Z" fill="#3F3D56"/>
<path d="M268.572 264.328C267.89 263.51 266.718 263.068 265.593 262.829C265.627 262.727 262.171 262.013 262.114 262.16L260.811 261.123L256.81 263.201L254.562 261.67L253.518 262.041C253.56 261.857 250.275 262.425 250.275 262.425C249.648 262.448 248.846 262.487 247.949 262.556C244.808 262.798 244.566 270.934 244.566 270.934C246.011 270.343 247.553 270.02 249.114 269.982L249.963 293.806C254.331 293.431 258.911 293.867 263.658 294.933L265.884 273.192L271.069 271.176C271.069 271.176 270.183 266.262 268.572 264.328Z" fill="white"/>
<path d="M437.748 401.599L406.294 408.037L405.578 407.963L377.937 405.174V370.145L411.773 364.424L436.319 367.287L436.328 367.442V367.515L437.748 401.599Z" fill="#E6E6E6"/>
<path opacity="0.1" d="M437.748 401.599L406.294 408.037L405.578 407.963V372.054L436.328 367.442L437.748 401.599Z" fill="black"/>
<path opacity="0.05" d="M436.328 367.515L436.319 367.524L405.578 372.054L377.937 370.145L411.773 364.424L436.319 367.287L436.328 367.442V367.515Z" fill="black"/>
<path d="M400.866 383.618L381.742 382.37L381.156 391.346L400.28 392.594L400.866 383.618Z" fill="white"/>
<path d="M396.186 386.252L386.039 385.59L385.835 388.712L395.983 389.374L396.186 386.252Z" fill="#6C63FF"/>
<path d="M480.379 401.599L448.925 408.037L448.208 407.963L420.567 405.174V370.145L454.404 364.424L478.949 367.287L478.958 367.442V367.515L480.379 401.599Z" fill="#6C63FF"/>
<path opacity="0.1" d="M480.379 401.599L448.925 408.037L448.208 407.963V372.054L478.958 367.442L480.379 401.599Z" fill="black"/>
<path opacity="0.05" d="M478.958 367.515L478.949 367.524L448.208 372.054L420.567 370.145L454.404 364.424L478.949 367.287L478.958 367.442V367.515Z" fill="black"/>
<path d="M443.496 383.618L424.373 382.37L423.787 391.346L442.91 392.594L443.496 383.618Z" fill="white"/>
<path d="M438.817 386.252L428.67 385.59L428.466 388.712L438.613 389.374L438.817 386.252Z" fill="#6C63FF"/>
<path d="M503.139 226.775C503.139 226.775 508.689 241.112 498.514 241.112C488.34 241.112 514.238 255.448 524.412 247.124C534.587 238.8 528.575 238.337 528.575 238.337C528.575 238.337 515.163 239.725 515.626 227.7L503.139 226.775Z" fill="#FFB8B8"/>
<path d="M510.368 231.091C519.401 231.091 526.724 223.768 526.724 214.735C526.724 205.702 519.401 198.379 510.368 198.379C501.335 198.379 494.012 205.702 494.012 214.735C494.012 223.768 501.335 231.091 510.368 231.091Z" fill="#2F2E41"/>
<path d="M500.364 286.434L482.79 331.756C482.79 331.756 474.003 345.63 477.241 359.504C480.478 373.378 489.374 398.629 489.374 398.629C489.374 398.629 496.094 400.339 495.632 394.327C495.169 388.314 495.92 359.167 488.983 351.305L517.013 319.269L517.938 355.804C517.938 355.804 516.088 372.453 516.551 379.853C517.013 387.252 517.938 399.739 517.938 399.739L523.488 398.814C523.488 398.814 530.974 364.751 530.049 353.652C530.049 353.652 547.232 299.722 529.658 286.772L500.364 286.434Z" fill="#2F2E41"/>
<path d="M491.306 398.553C491.306 398.553 489.043 397.977 488.782 400.053C488.522 402.128 483.762 411.357 488.731 411.819C493.7 412.281 495.419 407.632 496.252 404.364C497.084 401.095 497.399 400.908 498.094 400.282C498.789 399.656 500.443 396.225 498.368 395.964C496.292 395.704 495.228 393.663 495.228 393.663C495.228 393.663 494.574 399.386 491.306 398.553Z" fill="#2F2E41"/>
<path d="M521.561 396.949C521.561 396.949 517.364 396.349 517.664 397.848C517.964 399.347 517.065 405.641 517.664 406.241C518.264 406.84 519.463 408.039 519.463 408.938C519.463 409.838 519.762 412.835 524.858 411.936C529.954 411.037 528.755 406.54 528.455 405.941C528.155 405.341 524.558 402.344 524.858 400.545C525.158 398.747 523.359 395.75 521.561 396.949Z" fill="#2F2E41"/>
<path d="M510.57 232.885C516.827 232.885 521.899 227.813 521.899 221.556C521.899 215.299 516.827 210.227 510.57 210.227C504.313 210.227 499.241 215.299 499.241 221.556C499.241 227.813 504.313 232.885 510.57 232.885Z" fill="#FFB8B8"/>
<path d="M521.406 237.181C521.406 237.181 525.358 244.999 513.448 245.22C509.786 245.288 505.432 242.62 503.634 239.43C502.575 237.55 502.308 240.146 500.595 239.956C497.353 239.595 493.888 240.941 490.788 242.589C490.388 242.802 490.074 243.147 489.899 243.565C489.725 243.984 489.702 244.45 489.833 244.883C492.184 252.684 498.898 290.205 499.934 292.248C502.58 297.465 531.222 288.728 531.222 288.728C531.615 274.533 526.463 254.674 535.525 240.231C533.531 238.733 531.237 237.685 528.8 237.158C526.363 236.632 523.84 236.639 521.406 237.181Z" fill="#575A89"/>
<path d="M521.164 212.845L512.864 208.497L501.402 210.275L499.03 220.75L504.934 220.522L506.583 216.674V220.459L509.307 220.354L510.888 214.228L511.876 220.75L521.559 220.552L521.164 212.845Z" fill="#2F2E41"/>
<path d="M511.229 202.683C514.874 202.683 517.829 199.728 517.829 196.083C517.829 192.438 514.874 189.484 511.229 189.484C507.584 189.484 504.629 192.438 504.629 196.083C504.629 199.728 507.584 202.683 511.229 202.683Z" fill="#2F2E41"/>
<path d="M502.908 194.075C502.908 192.498 503.472 190.974 504.498 189.778C505.525 188.581 506.945 187.791 508.503 187.551C507.563 187.407 506.603 187.468 505.689 187.73C504.774 187.992 503.927 188.448 503.206 189.068C502.484 189.687 501.905 190.455 501.508 191.32C501.111 192.184 500.905 193.124 500.905 194.075C500.905 195.026 501.111 195.966 501.508 196.83C501.905 197.694 502.484 198.462 503.206 199.082C503.927 199.702 504.774 200.158 505.689 200.42C506.603 200.681 507.563 200.742 508.503 200.599C506.945 200.358 505.525 199.569 504.498 198.372C503.472 197.175 502.908 195.651 502.908 194.075Z" fill="#2F2E41"/>
<path d="M541 351.146L509.546 357.584L508.83 357.511L481.189 354.721V319.692L515.025 313.972L539.571 316.834L539.58 316.989V317.063L541 351.146Z" fill="#E6E6E6"/>
<path opacity="0.1" d="M541 351.146L509.546 357.584L508.83 357.511V321.601L539.58 316.989L541 351.146Z" fill="black"/>
<path opacity="0.05" d="M539.58 317.063L539.571 317.072L508.83 321.601L481.189 319.692L515.025 313.972L539.571 316.834L539.58 316.989V317.063Z" fill="black"/>
<path d="M504.118 333.165L484.994 331.917L484.408 340.894L503.532 342.142L504.118 333.165Z" fill="white"/>
<path d="M499.438 335.8L489.291 335.137L489.087 338.26L499.235 338.922L499.438 335.8Z" fill="#6C63FF"/>
<path d="M492.003 310.696C492.003 310.696 480.441 319.946 485.528 323.183C490.615 326.42 496.627 310.696 496.627 310.696H492.003Z" fill="#FFB8B8"/>
<path d="M492.503 242.186C491.904 241.511 484.342 245.368 485.463 250.4L485.991 285.261C485.991 285.261 483.216 313.934 490.153 313.934C497.09 313.934 496.271 314.898 497.196 312.585C498.121 310.273 498.369 290.683 498.369 290.683L492.503 242.186Z" fill="#575A89"/>
<path d="M528.271 307.567C528.271 307.567 534.283 323.291 539.37 320.054C544.458 316.817 532.896 307.567 532.896 307.567H528.271Z" fill="#FFB8B8"/>
<path d="M529.658 287.946C529.658 287.946 526.777 307.144 527.702 309.457C528.627 311.769 527.809 310.805 534.746 310.805C541.683 310.805 538.908 282.132 538.908 282.132L539.436 247.271C540.557 242.239 532.995 238.383 532.396 239.057L525.747 261.742L529.658 287.946Z" fill="#575A89"/>
</g>
<defs>
<clipPath id="clip0">
<rect width="343" height="250.102" fill="white" transform="translate(198 162)"/>
</clipPath>
</defs>
</svg>
