<svg width="104" height="76" viewBox="0 0 104 76" fill="none" xmlns="http://www.w3.org/2000/svg">
<path d="M93.8604 23.8917V0H0V63.4782H36.6165L35.7976 69.7767H31.8168V75.8669H62.0444V69.7767H58.0628L57.244 63.4782H68.3896V76H104V23.8917H93.8604ZM97.8999 57.3856H74.4897V41.469H97.8999V57.3856ZM97.8999 35.378H74.4897V29.9818H97.8999V35.378ZM74.4897 63.4782L97.8999 63.4758V69.9098H74.4897V63.4782ZM87.7603 6.09097V23.8917H68.3896V43.9068H6.1001V6.09097H87.7603ZM51.9127 69.7767H41.9477L42.7665 63.4782H51.0931L51.9127 69.7767ZM6.1001 57.3872V49.9977H68.3896V57.3872H6.1001Z" fill="#0097E6"/>
</svg>
