<svg width="192" height="92" viewBox="0 0 192 92" fill="none" xmlns="http://www.w3.org/2000/svg">
<path d="M17.506 53.1622C11.8169 53.1622 6.30098 51.3411 2.71023 49.5111L0 60.4704C3.3251 62.2974 9.98128 64.0355 16.721 64.0355C32.9167 64.0355 40.531 55.6863 40.531 45.857C40.531 37.5938 35.627 32.2016 25.2129 28.3725C17.5956 25.4985 14.2705 23.8494 14.2705 20.1093C14.2705 17.0633 17.0703 14.4532 22.8489 14.4532C28.6275 14.4532 32.8302 16.1082 35.1912 17.2383L38.17 6.53997C34.6658 4.97393 29.7647 3.58289 23.1116 3.58289C9.19328 3.58289 0.787996 11.2351 0.787996 21.2394C0.787996 29.7636 7.17852 35.1557 16.9837 38.5488C24.0727 41.0729 26.8754 43.1609 26.8754 46.8091C26.8754 50.6411 23.6339 53.1622 17.506 53.1622Z" fill="#0097E6"/>
<path d="M87.1902 52.2932H62.9444V38.3768H84.6501V27.5896H62.9444V15.4113H85.9664V4.53796H49.5484V63.1665H87.1902V52.2932Z" fill="#0097E6"/>
<path d="M132.306 67.6155C140.588 67.6155 148.179 64.6524 154.089 59.7467L165.84 70.6437C165.822 71.8598 166.267 73.064 167.228 73.9567L184.471 89.9552C185.334 90.756 186.427 91.1505 187.522 91.1505C188.719 91.1505 189.916 90.676 190.796 89.7328C192.483 87.9413 192.384 85.1177 190.581 83.4449L173.338 67.4494C172.377 66.5566 171.129 66.2037 169.917 66.3015L158.321 55.5499C163.309 49.6683 166.333 42.0813 166.333 33.8033C166.333 15.1621 151.074 0 132.314 0C113.555 0 98.2874 15.168 98.2874 33.8062C98.2844 52.4534 113.546 67.6155 132.306 67.6155ZM132.306 8.90091C146.128 8.90091 157.372 20.0738 157.372 33.8062C157.372 47.5387 146.122 58.7146 132.306 58.7146C118.489 58.7146 107.239 47.5387 107.239 33.8062C107.239 20.0738 118.483 8.90091 132.306 8.90091Z" fill="#0097E6"/>
</svg>
