<svg width="106" height="106" viewBox="0 0 106 106" fill="none" xmlns="http://www.w3.org/2000/svg">
<path d="M61.8334 7.06653H44.1668C43.1917 7.06653 42.4002 7.85801 42.4002 8.83313C42.4002 9.80824 43.1917 10.5997 44.1668 10.5997H61.8334C62.8085 10.5997 63.6 9.80824 63.6 8.83313C63.6 7.85801 62.8085 7.06653 61.8334 7.06653Z" fill="#0097E6"/>
<path d="M84.3318 0H21.6699C17.5148 0 14.1333 3.38144 14.1333 7.53656V98.4634C14.1333 102.619 17.5148 106 21.6699 106H84.33C88.4851 106 91.8665 102.619 91.8665 98.4651V7.53656C91.8665 3.38144 88.4853 0 84.3318 0ZM88.3333 98.4634C88.3333 100.67 86.5367 102.467 84.3318 102.467H21.6699C19.4634 102.467 17.6665 100.67 17.6665 98.4651V7.53656C17.6665 5.33002 19.4631 3.5332 21.6699 3.5332H84.33C86.5365 3.5332 88.3333 5.32981 88.3333 7.53656V98.4634Z" fill="#0097E6"/>
<path d="M83.0334 14.1334H22.9666C21.9915 14.1334 21.2 14.9249 21.2 15.9V86.5666C21.2 87.5417 21.9915 88.3332 22.9666 88.3332H83.0332C84.0083 88.3332 84.7998 87.5417 84.7998 86.5666V15.9C84.8 14.9249 84.0085 14.1334 83.0334 14.1334ZM81.2666 84.8H24.7334V17.6666H81.2668V84.8H81.2666Z" fill="#0097E6"/>
<path d="M56.5334 90.1001H49.4668C48.4917 90.1001 47.7002 90.8916 47.7002 91.8667V98.9333C47.7002 99.9084 48.4917 100.7 49.4668 100.7H56.5334C57.5085 100.7 58.3 99.9084 58.3 98.9333V91.8667C58.3 90.8916 57.5085 90.1001 56.5334 90.1001ZM54.7666 97.1667H51.2332V93.6333H54.7666V97.1667Z" fill="#0097E6"/>
<path d="M75.9665 14.1334H61.8331C60.858 14.1334 60.0665 14.9249 60.0665 15.9V42.4C60.0665 43.1139 60.4976 43.7586 61.1566 44.0325C61.8191 44.3045 62.5751 44.1544 63.0822 43.649L68.8997 37.8315L74.7173 43.649C75.0548 43.9865 75.5069 44.1666 75.9663 44.1666C76.1943 44.1666 76.4239 44.1225 76.6429 44.0323C77.3019 43.7584 77.7329 43.1137 77.7329 42.3998V15.8998C77.7334 14.9249 76.9419 14.1334 75.9665 14.1334ZM74.1999 38.1354L70.149 34.0844C69.8045 33.7399 69.3521 33.5668 68.8999 33.5668C68.4476 33.5668 67.9954 33.7399 67.6509 34.0844L63.5999 38.1354V17.6666H74.1999V38.1354Z" fill="#0097E6"/>
<path d="M51.2334 22.9666H30.0335C29.0583 22.9666 28.2669 23.758 28.2669 24.7332C28.2669 25.7083 29.0583 26.4997 30.0335 26.4997H51.2334C52.2086 26.4997 53 25.7083 53 24.7332C53 23.758 52.2086 22.9666 51.2334 22.9666Z" fill="#0097E6"/>
<path d="M54.7666 40.6334H30.0335C29.0583 40.6334 28.2669 41.4249 28.2669 42.4C28.2669 43.3751 29.0583 44.1666 30.0335 44.1666H54.7669C55.742 44.1666 56.5334 43.3751 56.5334 42.4C56.5334 41.4249 55.742 40.6334 54.7666 40.6334Z" fill="#0097E6"/>
<path d="M35.3335 49.4666H30.0335C29.0583 49.4666 28.2669 50.258 28.2669 51.2332C28.2669 52.2083 29.0583 52.9997 30.0335 52.9997H35.3335C36.3086 52.9997 37.1 52.2083 37.1 51.2332C37.1 50.258 36.3086 49.4666 35.3335 49.4666Z" fill="#0097E6"/>
<path d="M75.9666 49.4666H42.4C41.4249 49.4666 40.6334 50.258 40.6334 51.2332C40.6334 52.2083 41.4249 53 42.4 53H75.9666C76.9417 53 77.7332 52.2085 77.7332 51.2334C77.7332 50.2582 76.942 49.4666 75.9666 49.4666Z" fill="#0097E6"/>
<path d="M75.9666 58.3H70.6665C69.6914 58.3 68.8999 59.0915 68.8999 60.0666C68.8999 61.0418 69.6914 61.8332 70.6665 61.8332H75.9666C76.9417 61.8332 77.7331 61.0418 77.7331 60.0666C77.7331 59.0915 76.9419 58.3 75.9666 58.3Z" fill="#0097E6"/>
<path d="M63.6 58.3H30.0335C29.0583 58.3 28.2669 59.0915 28.2669 60.0666C28.2669 61.0418 29.0583 61.8332 30.0335 61.8332H63.6C64.5752 61.8332 65.3666 61.0418 65.3666 60.0666C65.3666 59.0915 64.5752 58.3 63.6 58.3Z" fill="#0097E6"/>
<path d="M75.9666 75.9667H70.6665C69.6914 75.9667 68.8999 76.7582 68.8999 77.7333C68.8999 78.7084 69.6914 79.4999 70.6665 79.4999H75.9666C76.9417 79.4999 77.7331 78.7084 77.7331 77.7333C77.7331 76.7582 76.9419 75.9667 75.9666 75.9667Z" fill="#0097E6"/>
<path d="M63.6 75.9667H30.0335C29.0583 75.9667 28.2669 76.7582 28.2669 77.7333C28.2669 78.7084 29.0583 79.4999 30.0335 79.4999H63.6C64.5752 79.4999 65.3666 78.7084 65.3666 77.7333C65.3666 76.7582 64.5752 75.9667 63.6 75.9667Z" fill="#0097E6"/>
<path d="M35.3335 67.1334H30.0335C29.0583 67.1334 28.2669 67.9249 28.2669 68.9C28.2669 69.8751 29.0583 70.6666 30.0335 70.6666H35.3335C36.3086 70.6666 37.1 69.8751 37.1 68.9C37.1 67.9249 36.3086 67.1334 35.3335 67.1334Z" fill="#0097E6"/>
<path d="M75.9666 67.1334H42.4C41.4249 67.1334 40.6334 67.9249 40.6334 68.9C40.6334 69.8751 41.4249 70.6666 42.4 70.6666H75.9666C76.9417 70.6666 77.7332 69.8751 77.7332 68.9C77.7334 67.9249 76.942 67.1334 75.9666 67.1334Z" fill="#0097E6"/>
<path d="M54.7666 31.8H42.4C41.4249 31.8 40.6334 32.5915 40.6334 33.5666C40.6334 34.5418 41.4249 35.3332 42.4 35.3332H54.7666C55.7417 35.3332 56.5332 34.5418 56.5332 33.5666C56.5334 32.5915 55.7419 31.8 54.7666 31.8Z" fill="#0097E6"/>
<path d="M35.3335 31.8H30.0335C29.0583 31.8 28.2669 32.5915 28.2669 33.5666C28.2669 34.5418 29.0583 35.3332 30.0335 35.3332H35.3335C36.3086 35.3332 37.1 34.5418 37.1 33.5666C37.1 32.5915 36.3086 31.8 35.3335 31.8Z" fill="#0097E6"/>
<path d="M68.9 14.1334C67.9249 14.1334 67.1334 14.9249 67.1334 15.9V22.9666C67.1334 23.9417 67.9249 24.7332 68.9 24.7332C69.8751 24.7332 70.6666 23.9417 70.6666 22.9666V15.9C70.6666 14.9249 69.8751 14.1334 68.9 14.1334Z" fill="#0097E6"/>
</svg>
