<svg width="104" height="86" viewBox="0 0 104 86" fill="none" xmlns="http://www.w3.org/2000/svg">
<path d="M102.479 20.4762H1.48522C1.23599 20.4762 0.990773 20.4186 0.772148 20.3086C0.553523 20.1986 0.368525 20.0398 0.234195 19.8469C0.0998647 19.6539 0.0205228 19.433 0.00347783 19.2045C-0.0135672 18.9759 0.032233 18.7471 0.136659 18.5391L9.04786 0.793111C9.16674 0.556327 9.35693 0.355796 9.59592 0.215243C9.83491 0.0746899 10.1127 -3.5899e-06 10.3964 1.29407e-10H93.5676C93.8514 -3.5899e-06 94.1292 0.0746899 94.3681 0.215243C94.6071 0.355796 94.7973 0.556327 94.9162 0.793111L103.827 18.5391C103.932 18.7471 103.978 18.9759 103.961 19.2045C103.944 19.433 103.864 19.6539 103.73 19.8469C103.596 20.0398 103.411 20.1986 103.192 20.3086C102.973 20.4186 102.728 20.4762 102.479 20.4762ZM3.80659 17.746H100.157L92.6171 2.73016H11.347L3.80659 17.746Z" fill="#0097E6"/>
<path d="M8.69885 36.8572C6.39262 36.8547 4.18164 36.0115 2.55089 34.5126C0.920142 33.0138 0.00277806 30.9816 2.67029e-05 28.8619V19.1112C2.67029e-05 18.7491 0.156503 18.4019 0.435032 18.1459C0.713561 17.8899 1.09133 17.7461 1.48523 17.7461H15.9125C16.3064 17.7461 16.6841 17.8899 16.9627 18.1459C17.2412 18.4019 17.3977 18.7491 17.3977 19.1112V28.8619C17.3949 30.9816 16.4776 33.0138 14.8468 34.5126C13.2161 36.0115 11.0051 36.8547 8.69885 36.8572ZM2.97043 20.4763V28.8619C2.97043 30.2583 3.57396 31.5975 4.64824 32.5849C5.72253 33.5723 7.17957 34.127 8.69885 34.127C10.2181 34.127 11.6752 33.5723 12.7494 32.5849C13.8237 31.5975 14.4273 30.2583 14.4273 28.8619V20.4763H2.97043Z" fill="#0097E6"/>
<path d="M23.1261 36.8572C20.8198 36.8547 18.6089 36.0115 16.9781 34.5126C15.3474 33.0138 14.43 30.9816 14.4273 28.8619V19.1112C14.4273 18.7491 14.5837 18.4019 14.8623 18.1459C15.1408 17.8899 15.5186 17.7461 15.9125 17.7461H30.3397C30.7336 17.7461 31.1114 17.8899 31.3899 18.1459C31.6684 18.4019 31.8249 18.7491 31.8249 19.1112V28.8619C31.8221 30.9816 30.9048 33.0138 29.274 34.5126C27.6433 36.0115 25.4323 36.8547 23.1261 36.8572ZM17.3977 20.4763V28.8619C17.3977 30.2583 18.0012 31.5975 19.0755 32.5849C20.1498 33.5723 21.6068 34.127 23.1261 34.127C24.6453 34.127 26.1024 33.5723 27.1767 32.5849C28.251 31.5975 28.8545 30.2583 28.8545 28.8619V20.4763H17.3977Z" fill="#0097E6"/>
<path d="M37.5548 36.8572C35.2486 36.8547 33.0376 36.0115 31.4068 34.5126C29.7761 33.0138 28.8587 30.9816 28.856 28.8619V19.1112C28.856 18.7491 29.0125 18.4019 29.291 18.1459C29.5695 17.8899 29.9473 17.7461 30.3412 17.7461H44.7684C45.1623 17.7461 45.5401 17.8899 45.8186 18.1459C46.0971 18.4019 46.2536 18.7491 46.2536 19.1112V28.8619C46.2509 30.9816 45.3335 33.0138 43.7028 34.5126C42.072 36.0115 39.861 36.8547 37.5548 36.8572ZM31.8264 20.4763V28.8619C31.8264 30.2583 32.4299 31.5975 33.5042 32.5849C34.5785 33.5723 36.0355 34.127 37.5548 34.127C39.0741 34.127 40.5311 33.5723 41.6054 32.5849C42.6797 31.5975 43.2832 30.2583 43.2832 28.8619V20.4763H31.8264Z" fill="#0097E6"/>
<path d="M51.982 36.8572C49.6758 36.8547 47.4648 36.0115 45.8341 34.5126C44.2033 33.0138 43.286 30.9816 43.2832 28.8619V19.1112C43.2832 18.7491 43.4397 18.4019 43.7182 18.1459C43.9968 17.8899 44.3745 17.7461 44.7684 17.7461H59.1957C59.5896 17.7461 59.9673 17.8899 60.2458 18.1459C60.5244 18.4019 60.6809 18.7491 60.6809 19.1112V28.8619C60.6781 30.9816 59.7607 33.0138 58.13 34.5126C56.4992 36.0115 54.2883 36.8547 51.982 36.8572ZM46.2536 20.4763V28.8619C46.2536 30.2583 46.8571 31.5975 47.9314 32.5849C49.0057 33.5723 50.4628 34.127 51.982 34.127C53.5013 34.127 54.9584 33.5723 56.0326 32.5849C57.1069 31.5975 57.7105 30.2583 57.7105 28.8619V20.4763H46.2536Z" fill="#0097E6"/>
<path d="M66.4093 36.8572C64.103 36.8547 61.8921 36.0115 60.2613 34.5126C58.6306 33.0138 57.7132 30.9816 57.7104 28.8619V19.1112C57.7104 18.7491 57.8669 18.4019 58.1455 18.1459C58.424 17.8899 58.8017 17.7461 59.1956 17.7461H73.6229C74.0168 17.7461 74.3946 17.8899 74.6731 18.1459C74.9516 18.4019 75.1081 18.7491 75.1081 19.1112V28.8619C75.1053 30.9816 74.188 33.0138 72.5572 34.5126C70.9265 36.0115 68.7155 36.8547 66.4093 36.8572ZM60.6809 20.4763V28.8619C60.6809 30.2583 61.2844 31.5975 62.3587 32.5849C63.433 33.5723 64.89 34.127 66.4093 34.127C67.9285 34.127 69.3856 33.5723 70.4599 32.5849C71.5342 31.5975 72.1377 30.2583 72.1377 28.8619V20.4763H60.6809Z" fill="#0097E6"/>
<path d="M80.838 36.8572C78.5318 36.8547 76.3208 36.0115 74.69 34.5126C73.0593 33.0138 72.1419 30.9816 72.1392 28.8619V19.1112C72.1392 18.7491 72.2956 18.4019 72.5742 18.1459C72.8527 17.8899 73.2305 17.7461 73.6244 17.7461H88.0516C88.4455 17.7461 88.8233 17.8899 89.1018 18.1459C89.3803 18.4019 89.5368 18.7491 89.5368 19.1112V28.8619C89.5341 30.9816 88.6167 33.0138 86.9859 34.5126C85.3552 36.0115 83.1442 36.8547 80.838 36.8572ZM75.1081 20.4763V28.8619C75.1081 30.2583 75.7116 31.5975 76.7859 32.5849C77.8602 33.5723 79.3172 34.127 80.8365 34.127C82.3558 34.127 83.8128 33.5723 84.8871 32.5849C85.9614 31.5975 86.5649 30.2583 86.5649 28.8619V20.4763H75.1081Z" fill="#0097E6"/>
<path d="M95.2652 36.8572C92.959 36.8547 90.748 36.0115 89.1173 34.5126C87.4865 33.0138 86.5692 30.9816 86.5664 28.8619V19.1112C86.5664 18.7491 86.7229 18.4019 87.0014 18.1459C87.28 17.8899 87.6577 17.7461 88.0516 17.7461H102.479C102.873 17.7461 103.251 17.8899 103.529 18.1459C103.808 18.4019 103.964 18.7491 103.964 19.1112V28.8619C103.961 30.9816 103.044 33.0138 101.413 34.5126C99.7824 36.0115 97.5715 36.8547 95.2652 36.8572ZM89.5368 20.4763V28.8619C89.5368 30.2583 90.1403 31.5975 91.2146 32.5849C92.2889 33.5723 93.746 34.127 95.2652 34.127C96.7845 34.127 98.2416 33.5723 99.3158 32.5849C100.39 31.5975 100.994 30.2583 100.994 28.8619V20.4763H89.5368Z" fill="#0097E6"/>
<path d="M98.0233 86H5.80715C5.41325 86 5.03549 85.8561 4.75696 85.6001C4.47843 85.3441 4.32195 84.9969 4.32195 84.6349V34.127H7.29235V83.2698H96.5381V34.127H99.5084V84.6349C99.5084 84.9969 99.352 85.3441 99.0734 85.6001C98.7949 85.8561 98.4172 86 98.0233 86Z" fill="#0097E6"/>
<path d="M86.1416 86H60.8932C60.4993 86 60.1216 85.8562 59.843 85.6002C59.5645 85.3442 59.408 84.9969 59.408 84.6349V46.4127C59.408 46.0506 59.5645 45.7034 59.843 45.4474C60.1216 45.1914 60.4993 45.0476 60.8932 45.0476H86.1416C86.5355 45.0476 86.9133 45.1914 87.1918 45.4474C87.4704 45.7034 87.6268 46.0506 87.6268 46.4127V84.6349C87.6268 84.9969 87.4704 85.3442 87.1918 85.6002C86.9133 85.8562 86.5355 86 86.1416 86ZM62.3784 83.2698H84.6564V47.7778H62.3784V83.2698Z" fill="#0097E6"/>
<path d="M51.982 74.3969H14.852C14.4581 74.3969 14.0804 74.253 13.8018 73.997C13.5233 73.741 13.3668 73.3938 13.3668 73.0318V45.7302C13.3668 45.3681 13.5233 45.0209 13.8018 44.7649C14.0804 44.5089 14.4581 44.3651 14.852 44.3651H51.982C52.3759 44.3651 52.7537 44.5089 53.0322 44.7649C53.3108 45.0209 53.4672 45.3681 53.4672 45.7302V73.0318C53.4672 73.3938 53.3108 73.741 53.0322 73.997C52.7537 74.253 52.3759 74.3969 51.982 74.3969ZM16.3372 71.6667H50.4968V47.0953H16.3372V71.6667Z" fill="#0097E6"/>
</svg>
