<svg width="105" height="105" viewBox="0 0 105 105" fill="none" xmlns="http://www.w3.org/2000/svg">
<path d="M105 71.0596C105 55.7548 94.6876 42.3831 80.1455 38.3536C79.2315 17.0503 61.6172 0 40.0928 0C17.9852 0 0 17.9852 0 40.0928C0 47.2977 1.9178 54.3129 5.55954 60.4716L0.1474 80.0373L19.7139 74.626C25.3752 77.9737 31.7615 79.8595 38.3528 80.1439C42.3815 94.6868 55.754 105 71.0596 105C77.1687 105 83.1095 103.373 88.3294 100.282L104.852 104.852L100.282 88.3294C103.373 83.1095 105 77.1687 105 71.0596ZM20.6849 67.9738L8.97137 71.2142L12.2118 59.5007L11.4732 58.3455C7.99244 52.8997 6.15234 46.588 6.15234 40.0928C6.15234 21.3778 21.3778 6.15234 40.0928 6.15234C58.8078 6.15234 74.0332 21.3778 74.0332 40.0928C74.0332 58.8078 58.8078 74.0332 40.0928 74.0332C33.5976 74.0332 27.2866 72.1931 21.84 68.7124L20.6849 67.9738ZM96.0286 96.0286L87.3368 93.6238L86.1761 94.3792C81.6764 97.3024 76.4485 98.8477 71.0596 98.8477C59.0305 98.8477 48.4601 91.0699 44.715 79.9172C63.1352 77.7935 77.7935 63.1352 79.918 44.7142C91.0699 48.4601 98.8477 59.0305 98.8477 71.0596C98.8477 76.4485 97.3024 81.6764 94.3792 86.1761L93.6238 87.3368L96.0286 96.0286Z" fill="#0097E6"/>
<path d="M37.0166 55.5762H43.1689V61.7285H37.0166V55.5762Z" fill="#0097E6"/>
<path d="M46.2451 30.7617C46.2451 32.5089 45.5338 34.1215 44.2424 35.3031L37.0166 41.9168V49.4238H43.1689V44.6261L48.396 39.842C50.9387 37.5149 52.3975 34.2056 52.3975 30.7617C52.3975 23.9765 46.878 18.457 40.0928 18.457C33.3076 18.457 27.7881 23.9765 27.7881 30.7617H33.9404C33.9404 27.3691 36.7002 24.6094 40.0928 24.6094C43.4854 24.6094 46.2451 27.3691 46.2451 30.7617Z" fill="#0097E6"/>
</svg>
