<svg width="476" height="467" viewBox="0 0 476 467" fill="none" xmlns="http://www.w3.org/2000/svg">
<ellipse cx="238" cy="233.5" rx="238" ry="233.5" fill="#0097E6"/>
<g clip-path="url(#clip0)">
<path d="M318.264 123.144H66.1083V284.636H318.264V123.144Z" fill="#E6E6E6"/>
<path d="M311.053 143.398H73.318V275.081H311.053V143.398Z" fill="white"/>
<path d="M318.156 123H66V133.713H318.156V123Z" fill="#6C63FF"/>
<path d="M73.9606 130.462C75.0572 130.462 75.9461 129.573 75.9461 128.477C75.9461 127.38 75.0572 126.491 73.9606 126.491C72.8641 126.491 71.9752 127.38 71.9752 128.477C71.9752 129.573 72.8641 130.462 73.9606 130.462Z" fill="white"/>
<path d="M81.497 130.462C82.5936 130.462 83.4825 129.573 83.4825 128.477C83.4825 127.38 82.5936 126.491 81.497 126.491C80.4005 126.491 79.5116 127.38 79.5116 128.477C79.5116 129.573 80.4005 130.462 81.497 130.462Z" fill="white"/>
<path d="M89.0334 130.462C90.13 130.462 91.0189 129.573 91.0189 128.477C91.0189 127.38 90.13 126.491 89.0334 126.491C87.9369 126.491 87.0479 127.38 87.0479 128.477C87.0479 129.573 87.9369 130.462 89.0334 130.462Z" fill="white"/>
<path d="M149.066 154.229H102.569V204.674H149.066V154.229Z" fill="#E6E6E6"/>
<path d="M215.434 154.229H168.936V204.674H215.434V154.229Z" fill="#E6E6E6"/>
<path d="M281.801 154.229H235.304V204.674H281.801V154.229Z" fill="#E6E6E6"/>
<path d="M149.066 213.805H102.569V264.251H149.066V213.805Z" fill="#E6E6E6"/>
<path d="M215.434 213.805H168.936V264.251H215.434V213.805Z" fill="#E6E6E6"/>
<path d="M281.801 213.805H235.304V264.251H281.801V213.805Z" fill="#E6E6E6"/>
<path d="M180.175 226.77L188.67 223.412L189.658 240.205C189.658 240.205 191.436 245.342 190.844 247.318C190.844 247.318 191.239 250.677 190.251 250.874C189.263 251.072 186.497 251.467 186.299 251.269C186.102 251.072 186.102 250.479 186.102 250.479C186.102 250.479 184.126 251.862 183.929 253.443C183.929 253.443 175.631 256.011 175.433 253.64C175.235 251.269 179.582 249.293 179.582 249.293L182.941 244.157L180.175 226.77Z" fill="white"/>
<path d="M198.154 226.77L206.649 223.412L207.637 240.205C207.637 240.205 209.415 245.342 208.823 247.318C208.823 247.318 209.218 250.677 208.23 250.874C207.242 251.072 204.476 251.467 204.278 251.269C204.081 251.072 204.081 250.479 204.081 250.479C204.081 250.479 202.105 251.862 201.908 253.443C201.908 253.443 193.61 256.011 193.412 253.64C193.214 251.269 197.561 249.293 197.561 249.293L200.92 244.157L198.154 226.77Z" fill="white"/>
<path d="M198.985 161.919C198.985 161.919 197.176 166.973 199.272 169.253L197.524 175.257C197.524 175.257 203.733 193.882 201.959 196.484C201.959 196.484 195.337 199.795 182.092 195.302L187.473 174.43L186.704 165.62L187.768 161.481L190.134 161.244C190.134 161.244 188.714 166.566 191.316 167.393C193.918 168.221 196.456 161.377 196.456 161.377L198.985 161.919Z" fill="#3F3D56"/>
<path d="M115.444 194.549L117.727 195.483L128.622 181.164L132.046 197.974L134.329 197.559C135.794 183.066 136.988 168.284 135.523 161.293L127.066 160.93L123.227 173.174L121.359 181.475L115.444 194.549Z" fill="white"/>
<path d="M253.996 161.177C253.996 161.177 250.881 165.508 251.033 167.256C251.185 169.003 253.16 197.499 253.16 197.499L257.795 197.727L256.428 177.21L257.567 171.663L260.379 197.499L266.078 197.651L260.987 164.14L259.999 161.177L253.996 161.177Z" fill="white"/>
<path d="M271.604 230.952C270.777 229.96 269.355 229.423 267.99 229.133C268.031 229.009 263.837 228.142 263.767 228.321L262.186 227.062L257.331 229.584L254.602 227.726L253.334 228.176C253.386 227.952 249.399 228.643 249.399 228.643C248.638 228.67 247.665 228.718 246.576 228.801C242.763 229.095 242.47 238.969 242.47 238.969C244.224 238.251 246.095 237.86 247.99 237.813L249.02 249.626C254.321 249.171 259.88 249.7 265.641 250.994L268.343 241.71L274.635 239.262C274.635 239.262 273.56 233.299 271.604 230.952Z" fill="#3F3D56"/>
<path d="M136.572 225.328C135.89 224.51 134.718 224.068 133.593 223.829C133.627 223.727 130.171 223.013 130.114 223.16L128.811 222.123L124.81 224.201L122.562 222.67L121.518 223.041C121.56 222.857 118.275 223.425 118.275 223.425C117.648 223.448 116.846 223.487 115.949 223.556C112.808 223.798 112.566 231.934 112.566 231.934C114.011 231.343 115.553 231.02 117.114 230.982L117.963 254.806C122.331 254.431 126.911 254.867 131.658 255.933L133.884 234.192L139.069 232.176C139.069 232.176 138.183 227.262 136.572 225.328Z" fill="white"/>
<path d="M305.748 362.599L274.294 369.037L273.578 368.963L245.937 366.174V331.145L279.773 325.424L304.319 328.287L304.328 328.442V328.515L305.748 362.599Z" fill="#E6E6E6"/>
<path opacity="0.1" d="M305.748 362.599L274.294 369.037L273.578 368.963V333.054L304.328 328.442L305.748 362.599Z" fill="black"/>
<path opacity="0.05" d="M304.328 328.515L304.319 328.524L273.578 333.054L245.937 331.145L279.773 325.424L304.319 328.287L304.328 328.442V328.515Z" fill="black"/>
<path d="M268.866 344.618L249.742 343.37L249.156 352.346L268.28 353.594L268.866 344.618Z" fill="white"/>
<path d="M264.186 347.252L254.039 346.59L253.835 349.712L263.983 350.374L264.186 347.252Z" fill="#6C63FF"/>
<path d="M348.379 362.599L316.925 369.037L316.208 368.963L288.567 366.174V331.145L322.404 325.424L346.949 328.287L346.958 328.442V328.515L348.379 362.599Z" fill="#6C63FF"/>
<path opacity="0.1" d="M348.379 362.599L316.925 369.037L316.208 368.963V333.054L346.958 328.442L348.379 362.599Z" fill="black"/>
<path opacity="0.05" d="M346.958 328.515L346.949 328.524L316.208 333.054L288.567 331.145L322.404 325.424L346.949 328.287L346.958 328.442V328.515Z" fill="black"/>
<path d="M311.496 344.618L292.373 343.37L291.787 352.346L310.91 353.594L311.496 344.618Z" fill="white"/>
<path d="M306.817 347.252L296.67 346.59L296.466 349.712L306.613 350.374L306.817 347.252Z" fill="#6C63FF"/>
<path d="M371.139 187.775C371.139 187.775 376.689 202.112 366.514 202.112C356.34 202.112 382.238 216.448 392.412 208.124C402.587 199.8 396.575 199.337 396.575 199.337C396.575 199.337 383.163 200.725 383.626 188.7L371.139 187.775Z" fill="#FFB8B8"/>
<path d="M378.368 192.091C387.401 192.091 394.724 184.768 394.724 175.735C394.724 166.702 387.401 159.379 378.368 159.379C369.335 159.379 362.012 166.702 362.012 175.735C362.012 184.768 369.335 192.091 378.368 192.091Z" fill="#2F2E41"/>
<path d="M368.364 247.434L350.79 292.756C350.79 292.756 342.003 306.63 345.241 320.504C348.478 334.378 357.374 359.629 357.374 359.629C357.374 359.629 364.094 361.339 363.632 355.327C363.169 349.314 363.92 320.167 356.983 312.305L385.013 280.269L385.938 316.804C385.938 316.804 384.088 333.453 384.551 340.853C385.013 348.252 385.938 360.739 385.938 360.739L391.488 359.814C391.488 359.814 398.974 325.751 398.049 314.652C398.049 314.652 415.232 260.722 397.658 247.772L368.364 247.434Z" fill="#2F2E41"/>
<path d="M359.306 359.553C359.306 359.553 357.043 358.977 356.782 361.053C356.522 363.128 351.762 372.357 356.731 372.819C361.7 373.281 363.419 368.632 364.252 365.364C365.084 362.095 365.399 361.908 366.094 361.282C366.789 360.656 368.443 357.225 366.368 356.964C364.292 356.704 363.228 354.663 363.228 354.663C363.228 354.663 362.574 360.386 359.306 359.553Z" fill="#2F2E41"/>
<path d="M389.561 357.949C389.561 357.949 385.364 357.349 385.664 358.848C385.964 360.347 385.065 366.641 385.664 367.241C386.264 367.84 387.463 369.039 387.463 369.938C387.463 370.838 387.762 373.835 392.858 372.936C397.954 372.037 396.755 367.54 396.455 366.941C396.155 366.341 392.558 363.344 392.858 361.545C393.158 359.747 391.359 356.75 389.561 357.949Z" fill="#2F2E41"/>
<path d="M378.57 193.885C384.827 193.885 389.899 188.813 389.899 182.556C389.899 176.299 384.827 171.227 378.57 171.227C372.313 171.227 367.241 176.299 367.241 182.556C367.241 188.813 372.313 193.885 378.57 193.885Z" fill="#FFB8B8"/>
<path d="M389.406 198.181C389.406 198.181 393.358 205.999 381.448 206.22C377.786 206.288 373.432 203.62 371.634 200.43C370.575 198.55 370.308 201.146 368.595 200.956C365.353 200.595 361.888 201.941 358.788 203.589C358.388 203.802 358.074 204.147 357.899 204.565C357.725 204.984 357.702 205.45 357.833 205.883C360.184 213.684 366.898 251.205 367.934 253.248C370.58 258.465 399.222 249.728 399.222 249.728C399.615 235.533 394.463 215.674 403.525 201.231C401.531 199.733 399.237 198.685 396.8 198.158C394.363 197.632 391.84 197.639 389.406 198.181Z" fill="#575A89"/>
<path d="M389.164 173.845L380.864 169.497L369.402 171.275L367.03 181.75L372.934 181.522L374.583 177.674V181.459L377.307 181.354L378.888 175.228L379.876 181.75L389.559 181.552L389.164 173.845Z" fill="#2F2E41"/>
<path d="M379.229 163.683C382.874 163.683 385.829 160.728 385.829 157.083C385.829 153.438 382.874 150.484 379.229 150.484C375.584 150.484 372.629 153.438 372.629 157.083C372.629 160.728 375.584 163.683 379.229 163.683Z" fill="#2F2E41"/>
<path d="M370.908 155.075C370.908 153.498 371.472 151.974 372.498 150.778C373.525 149.581 374.945 148.791 376.503 148.551C375.563 148.407 374.603 148.468 373.689 148.73C372.774 148.992 371.927 149.448 371.206 150.068C370.484 150.687 369.905 151.455 369.508 152.32C369.111 153.184 368.905 154.124 368.905 155.075C368.905 156.026 369.111 156.966 369.508 157.83C369.905 158.694 370.484 159.462 371.206 160.082C371.927 160.702 372.774 161.158 373.689 161.42C374.603 161.681 375.563 161.742 376.503 161.599C374.945 161.358 373.525 160.569 372.498 159.372C371.472 158.175 370.908 156.651 370.908 155.075Z" fill="#2F2E41"/>
<path d="M409 312.146L377.546 318.584L376.83 318.511L349.189 315.721V280.692L383.025 274.972L407.571 277.834L407.58 277.989V278.063L409 312.146Z" fill="#E6E6E6"/>
<path opacity="0.1" d="M409 312.146L377.546 318.584L376.83 318.511V282.601L407.58 277.989L409 312.146Z" fill="black"/>
<path opacity="0.05" d="M407.58 278.063L407.571 278.072L376.83 282.601L349.189 280.692L383.025 274.972L407.571 277.834L407.58 277.989V278.063Z" fill="black"/>
<path d="M372.118 294.165L352.994 292.917L352.408 301.894L371.532 303.142L372.118 294.165Z" fill="white"/>
<path d="M367.438 296.8L357.291 296.137L357.087 299.26L367.235 299.922L367.438 296.8Z" fill="#6C63FF"/>
<path d="M360.003 271.696C360.003 271.696 348.441 280.946 353.528 284.183C358.615 287.42 364.627 271.696 364.627 271.696H360.003Z" fill="#FFB8B8"/>
<path d="M360.503 203.186C359.904 202.511 352.342 206.368 353.463 211.4L353.991 246.261C353.991 246.261 351.216 274.934 358.153 274.934C365.09 274.934 364.271 275.898 365.196 273.585C366.121 271.273 366.369 251.683 366.369 251.683L360.503 203.186Z" fill="#575A89"/>
<path d="M396.271 268.567C396.271 268.567 402.283 284.291 407.37 281.054C412.458 277.817 400.896 268.567 400.896 268.567H396.271Z" fill="#FFB8B8"/>
<path d="M397.658 248.946C397.658 248.946 394.777 268.144 395.702 270.457C396.627 272.769 395.809 271.805 402.746 271.805C409.683 271.805 406.908 243.132 406.908 243.132L407.436 208.271C408.557 203.239 400.995 199.383 400.396 200.057L393.747 222.742L397.658 248.946Z" fill="#575A89"/>
</g>
<defs>
<clipPath id="clip0">
<rect width="343" height="250.102" fill="white" transform="translate(66 123)"/>
</clipPath>
</defs>
</svg>
