<svg width="143" height="100" viewBox="0 0 143 100" fill="none" xmlns="http://www.w3.org/2000/svg">
<g clip-path="url(#clip0)">
<path d="M72.0856 100C110.963 100 142.479 97.855 142.479 95.2091C142.479 92.5632 110.963 90.4183 72.0856 90.4183C33.2084 90.4183 1.69214 92.5632 1.69214 95.2091C1.69214 97.855 33.2084 100 72.0856 100Z" fill="#3F3D56"/>
<path d="M131.881 86.3091L132.541 90.524L127.922 90.9071L128.582 85.7343L131.881 86.3091Z" fill="#A0616A"/>
<path d="M110.109 28.4504C110.109 28.4504 110.548 33.6232 110.548 33.8148C110.548 34.0064 107.469 47.2258 107.469 47.2258C107.469 47.2258 103.071 54.506 107.469 54.3144C111.868 54.1228 110.548 47.4174 110.548 47.4174L115.167 36.3054L113.187 28.4504L110.109 28.4504Z" fill="#A0616A"/>
<path d="M117.366 86.3091L116.706 90.524L121.325 90.9071L120.665 85.7343L117.366 86.3091Z" fill="#A0616A"/>
<path d="M112.308 46.8426L111.208 48.1837C111.208 48.1837 110.548 53.9312 111.208 55.8471C111.868 57.7629 113.187 66.5758 113.187 67.1506C113.187 67.7253 113.407 68.1085 113.187 68.3001C112.968 68.4917 112.308 68.4917 112.748 68.8749C113.187 69.258 113.187 70.4075 113.187 70.4075V71.3655L116.046 85.5428C116.046 85.5428 114.287 87.267 115.607 87.267C116.926 87.267 121.764 87.267 121.545 85.3512L121.105 85.1596C121.105 85.1596 120.445 72.515 120.665 71.9402C120.885 71.3655 120.665 70.216 120.665 70.216C120.665 70.216 120.225 69.6412 120.665 69.4496C121.105 69.258 121.105 67.7253 121.105 67.7253L123.084 56.0387C123.084 56.0387 124.843 63.8936 125.943 64.66C127.043 65.4263 126.823 67.3422 126.823 67.3422L127.702 84.2017C127.702 84.2017 126.823 86.1175 127.702 86.5007C128.582 86.8839 132.321 88.2249 132.541 86.3091C132.761 84.3932 133.86 67.7253 133.86 66.959C133.86 66.1927 133.64 65.8095 133.86 65.2347C134.08 64.66 133.64 64.66 133.86 64.66C134.08 64.66 133.42 64.0852 133.42 63.7021V54.3144C133.42 54.3144 133.64 52.3985 133.86 52.0154C134.08 51.6322 133.64 51.249 133.86 50.6743C134.08 50.0995 133.42 48.1837 133.42 48.1837L123.524 45.8846L112.308 46.8426Z" fill="#2F2E41"/>
<path d="M120.005 89.7576C120.005 89.7576 121.105 88.7997 119.565 88.7997C118.577 88.8172 117.603 89.0129 116.706 89.3744L115.607 92.823C115.607 92.823 111.098 95.9841 116.156 95.601C121.215 95.2178 120.445 95.5052 120.445 95.5052C120.445 95.5052 121.984 95.122 122.204 94.7388C122.424 94.3556 121.764 88.7997 121.764 88.7997C121.764 88.7997 121.105 90.3324 120.005 89.7576Z" fill="#2F2E41"/>
<path d="M129.462 89.7576C129.462 89.7576 128.362 88.7997 129.902 88.7997C130.89 88.8173 131.863 89.0129 132.761 89.3744L133.86 92.823C133.86 92.823 138.369 95.9841 133.31 95.601C128.252 95.2178 128.362 95.5052 128.362 95.5052C128.362 95.5052 126.823 95.122 126.603 94.7388C126.383 94.3557 127.702 88.7997 127.702 88.7997C127.702 88.7997 128.362 90.3324 129.462 89.7576Z" fill="#2F2E41"/>
<path d="M115.167 13.3151C118.325 13.3151 120.885 11.085 120.885 8.33393C120.885 5.58289 118.325 3.35272 115.167 3.35272C112.009 3.35272 109.449 5.58289 109.449 8.33393C109.449 11.085 112.009 13.3151 115.167 13.3151Z" fill="#A0616A"/>
<path d="M113.187 11.9741C113.187 11.9741 114.067 15.8058 114.067 16.3805C114.067 16.9553 117.806 18.6795 117.806 18.6795L121.984 14.0815C121.984 14.0815 119.345 10.8246 119.345 10.0582L113.187 11.9741Z" fill="#A0616A"/>
<path d="M116.486 16.9553C116.486 16.9553 114.57 16.5108 113.988 15.7751C113.988 15.7751 107.909 20.9786 107.909 21.9365L112.748 29.4083C112.748 29.4083 112.748 32.0905 113.187 32.2821C113.627 32.4737 113.187 32.2821 113.187 33.0484C113.187 33.8148 111.868 38.796 112.308 39.5623C112.748 40.3287 113.187 39.7539 112.748 40.9034C112.308 42.0529 111.208 48.1837 111.208 48.1837C111.208 48.1837 115.167 47.0341 120.885 48.95C126.603 50.8658 133.42 48.1837 133.42 48.1837C133.42 48.1837 131.661 44.7351 132.101 43.5856C132.541 42.4361 131.001 40.3287 131.001 40.3287L129.902 22.7028C129.902 22.7028 131.441 14.8479 130.341 14.4647L128.142 13.6983L121.099 12.9443C121.099 12.9443 119.345 16.7637 116.486 16.9553Z" fill="#D0CDE1"/>
<path d="M110.109 20.5954L107.909 21.9365C107.909 21.9365 106.81 24.8103 107.909 26.1514C109.009 27.4925 109.449 29.4083 109.449 29.4083L113.847 29.0251L110.109 20.5954Z" fill="#D0CDE1"/>
<path d="M110.801 3.06966L109.809 2.72374C109.809 2.72374 111.883 0.734729 114.769 0.90769L113.957 0.129369C113.957 0.129369 115.941 -0.562457 117.744 1.2536C118.692 2.20826 119.789 3.33041 120.473 4.5945H121.535L121.092 5.44488L122.643 6.29525L121.051 6.1425C121.201 6.87665 121.15 7.63153 120.9 8.34488L120.943 9.01702C120.943 9.01702 119.097 6.52881 119.097 6.1829V7.04769C119.097 7.04769 118.105 6.26938 118.105 5.75051L117.564 6.35586L117.293 5.40459L113.957 6.35586L114.498 5.57755L112.424 5.837L113.236 4.88572C113.236 4.88572 110.891 6.00995 110.801 6.96123C110.711 7.91249 109.539 9.1232 109.539 9.1232L108.998 8.25841C108.998 8.25841 108.186 4.36684 110.801 3.06966Z" fill="#2F2E41"/>
<path d="M112.127 41.6925H24.734V95.1729H112.127V41.6925Z" fill="#F2F2F2"/>
<path d="M54.0342 62.0977H32.0908V95.4677H54.0342V62.0977Z" fill="#3F3D56"/>
<path d="M42.0606 64.0996H36.1497V68.8998H42.0606V64.0996Z" fill="#F2F2F2"/>
<path d="M49.9753 64.0996H44.0644V68.8998H49.9753V64.0996Z" fill="#F2F2F2"/>
<path d="M42.0606 70.6453H36.1497V75.62H42.0606V70.6453Z" fill="#F2F2F2"/>
<path d="M49.9753 70.6453H44.0644V75.62H49.9753V70.6453Z" fill="#F2F2F2"/>
<path d="M51.2438 82.2448C52.0143 82.2448 52.639 81.7006 52.639 81.0294C52.639 80.3581 52.0143 79.8139 51.2438 79.8139C50.4732 79.8139 49.8485 80.3581 49.8485 81.0294C49.8485 81.7006 50.4732 82.2448 51.2438 82.2448Z" fill="#0097E6"/>
<path d="M104.771 58.9299H61.391V90.6425H104.771V58.9299Z" fill="#3F3D56"/>
<path d="M121.26 51.761H15.6015L22.6462 38.93L24.2228 36.0571L26.2854 32.3002L27.862 29.4273L29.6896 26.0992H112.935L114.015 29.4273L114.947 32.3002L116.166 36.0571L117.098 38.93L121.26 51.761Z" fill="#3F3D56"/>
<path d="M64.4352 72.079H62.9131V80.2558H64.4352V72.079Z" fill="#0097E6"/>
<path d="M64.4352 73.2946H62.9131V74.289H64.4352V73.2946Z" fill="#F2F2F2"/>
<path d="M64.4352 78.0459H62.9131V79.0404H64.4352V78.0459Z" fill="#F2F2F2"/>
<path d="M68.8746 72.079H65.1962V80.2558H68.8746V72.079Z" fill="#0097E6"/>
<path d="M68.8746 73.2946H65.1962V74.289H68.8746V73.2946Z" fill="#F2F2F2"/>
<path d="M68.8746 78.0459H65.1962V79.0404H68.8746V78.0459Z" fill="#F2F2F2"/>
<path d="M71.2846 72.079H69.7625V80.2558H71.2846V72.079Z" fill="#0097E6"/>
<path d="M71.2846 73.2946H69.7625V74.289H71.2846V73.2946Z" fill="#F2F2F2"/>
<path d="M71.2846 78.0459H69.7625V79.0404H71.2846V78.0459Z" fill="#F2F2F2"/>
<path d="M73.5677 72.079H72.0457V80.2558H73.5677V72.079Z" fill="#0097E6"/>
<path d="M73.5677 73.2946H72.0457V74.289H73.5677V73.2946Z" fill="#F2F2F2"/>
<path d="M73.5677 78.0459H72.0457V79.0404H73.5677V78.0459Z" fill="#F2F2F2"/>
<path d="M75.0345 72.108L73.6102 72.5757L76.921 80.2269L78.3452 79.7592L75.0345 72.108Z" fill="#0097E6"/>
<path d="M75.5266 73.2454L74.1023 73.7131L74.505 74.6436L75.9292 74.1759L75.5266 73.2454Z" fill="#F2F2F2"/>
<path d="M77.4504 77.6913L76.0262 78.159L76.4288 79.0896L77.8531 78.6219L77.4504 77.6913Z" fill="#F2F2F2"/>
<path d="M103.375 72.079H99.6969V80.2558H103.375V72.079Z" fill="#0097E6"/>
<path d="M103.375 73.2946H99.6969V74.289H103.375V73.2946Z" fill="#F2F2F2"/>
<path d="M103.375 78.0459H99.6969V79.0404H103.375V78.0459Z" fill="#F2F2F2"/>
<path d="M98.809 72.079H97.2869V80.2558H98.809V72.079Z" fill="#0097E6"/>
<path d="M98.809 73.2946H97.2869V74.289H98.809V73.2946Z" fill="#F2F2F2"/>
<path d="M98.809 78.0459H97.2869V79.0404H98.809V78.0459Z" fill="#F2F2F2"/>
<path d="M96.5259 72.079H95.0038V80.2558H96.5259V72.079Z" fill="#0097E6"/>
<path d="M96.5259 73.2946H95.0038V74.289H96.5259V73.2946Z" fill="#F2F2F2"/>
<path d="M96.5259 78.0459H95.0038V79.0404H96.5259V78.0459Z" fill="#F2F2F2"/>
<path d="M93.5371 72.108L90.2263 79.7592L91.6506 80.2269L94.9613 72.5756L93.5371 72.108Z" fill="#0097E6"/>
<path d="M93.0449 73.2454L92.6423 74.1759L94.0665 74.6436L94.4692 73.7131L93.0449 73.2454Z" fill="#F2F2F2"/>
<path d="M91.1211 77.6913L90.7185 78.6219L92.1427 79.0896L92.5454 78.159L91.1211 77.6913Z" fill="#F2F2F2"/>
<path d="M104.771 80.2558H61.391V81.0293H104.771V80.2558Z" fill="#F2F2F2"/>
<path d="M88.2813 72.079H80.2903V80.2558H88.2813V72.079Z" fill="#0097E6"/>
<path d="M86.3152 73.847H82.2563V75.3939H86.3152V73.847Z" fill="#F2F2F2"/>
<path d="M83.4613 58.9299H82.7003V66.0017H83.4613V58.9299Z" fill="#F2F2F2"/>
<path d="M83.0808 67.1067C83.7813 67.1067 84.3492 66.612 84.3492 66.0017C84.3492 65.3915 83.7813 64.8968 83.0808 64.8968C82.3803 64.8968 81.8124 65.3915 81.8124 66.0017C81.8124 66.612 82.3803 67.1067 83.0808 67.1067Z" fill="#F2F2F2"/>
<path d="M114.947 32.3002H26.2854L27.8619 29.4273H114.015L114.947 32.3002Z" fill="#0097E6"/>
<path d="M117.098 38.93H22.6462L24.2228 36.0571H116.166L117.098 38.93Z" fill="#0097E6"/>
<path d="M126.383 22.3196C126.383 22.3196 125.109 25.1725 125.375 27.9951C125.424 28.5005 125.619 28.9868 125.943 29.4083L110.341 35.8611C110.341 35.8611 103.291 36.4969 105.05 39.1791C106.81 41.8613 113.187 37.838 113.187 37.838C113.187 37.838 129.902 35.7306 131.221 33.6232C132.541 31.5157 133.42 22.7028 133.42 22.7028L126.383 22.3196Z" fill="#A0616A"/>
<path d="M127.043 14.4647H130.341C130.341 14.4647 132.761 14.8478 133.42 18.6795C134.08 22.5112 134.74 23.4692 134.08 23.4692C133.42 23.4692 125.503 23.2776 125.503 23.086C125.503 22.8944 127.043 14.4647 127.043 14.4647Z" fill="#D0CDE1"/>
<path d="M16.9215 71.6971C26.267 71.6971 33.843 65.0973 33.843 56.956C33.843 48.8148 26.267 42.215 16.9215 42.215C7.57602 42.215 0 48.8148 0 56.956C0 65.0973 7.57602 71.6971 16.9215 71.6971Z" fill="#0097E6"/>
<path opacity="0.1" d="M16.9215 69.6333C24.9586 69.6333 31.474 63.9575 31.474 56.956C31.474 49.9545 24.9586 44.2787 16.9215 44.2787C8.88439 44.2787 2.36902 49.9545 2.36902 56.956C2.36902 63.9575 8.88439 69.6333 16.9215 69.6333Z" fill="black"/>
<path d="M16.2242 64.4369V62.5917C15.1535 62.5735 14.0459 62.2445 13.3998 61.7878L13.8428 60.5639C14.6106 61.0651 15.5417 61.3402 16.5011 61.3493C17.8118 61.3493 18.6979 60.6004 18.6979 59.5591C18.6979 58.5542 17.9779 57.9332 16.6119 57.385C14.7289 56.6543 13.5659 55.8139 13.5659 54.2246C13.5659 52.7082 14.6551 51.5573 16.3534 51.2833V49.4381H17.4979V51.2102C18.3514 51.2204 19.1838 51.4421 19.8978 51.8496L19.4362 53.0554C18.7515 52.647 17.9401 52.4303 17.1103 52.4342C15.6889 52.4342 15.1535 53.2745 15.1535 54.0053C15.1535 54.9553 15.8365 55.4303 17.4426 56.088C19.3439 56.8553 20.3039 57.8052 20.3039 59.4311C20.3039 60.8744 19.2886 62.2263 17.3872 62.5368V64.4369H16.2242Z" fill="#F2F2F2"/>
</g>
<defs>
<clipPath id="clip0">
<rect width="142.479" height="100" fill="white"/>
</clipPath>
</defs>
</svg>
