<svg width="155" height="122" viewBox="0 0 155 122" fill="none" xmlns="http://www.w3.org/2000/svg">
<g clip-path="url(#clip0)">
<path opacity="0.1" d="M54.3714 118.933C69.3039 118.933 81.409 116.64 81.409 113.811C81.409 110.982 69.3039 108.689 54.3714 108.689C39.439 108.689 27.3339 110.982 27.3339 113.811C27.3339 116.64 39.439 118.933 54.3714 118.933Z" fill="#0097E6"/>
<path opacity="0.1" d="M90.0558 17.1041C80.119 16.7602 70.655 13.5513 61.618 10.0415C52.5809 6.53167 43.6298 2.64415 33.9309 0.784841C27.6928 -0.411198 20.558 -0.581622 15.5328 2.7593C10.6949 5.98355 9.13192 11.5338 8.29208 16.688C7.65952 20.5663 7.28796 24.6488 9.01984 28.2799C10.2236 30.801 12.3577 32.9198 13.8347 35.3349C18.9735 43.7363 15.3409 54.0969 9.7737 62.3003C7.1636 66.1479 4.13127 69.8235 2.11536 73.9152C0.099437 78.0069 -0.832522 82.7113 0.931598 86.8966C2.67883 91.0421 6.84424 94.1496 11.3566 96.3375C20.5212 100.782 31.3162 102.054 41.8503 102.775C65.1616 104.369 88.5956 103.68 111.968 102.987C120.618 102.732 129.306 102.473 137.814 101.135C142.54 100.392 147.418 99.2132 150.85 96.3667C155.204 92.754 156.283 86.6372 153.365 82.1079C148.47 74.5079 134.94 72.6209 131.515 64.4667C129.633 59.9773 131.566 54.9782 134.303 50.8158C140.174 41.8847 150.014 34.0498 150.532 23.8428C150.888 16.8323 146.158 9.81118 138.843 6.49328C131.177 3.01571 120.545 3.45328 114.892 9.20932C109.065 15.1296 98.8303 17.4096 90.0558 17.1041Z" fill="#0097E6"/>
<path d="M82.1598 55.5398L77.457 52.3693L79.8291 48.838L67.4081 47.8477L62.9449 51.2992L57.3577 48.1671L52.6979 48.7275L52.6427 47.4992C52.585 46.2187 52.4563 44.9424 52.2573 43.6762C52.2772 43.2923 52.2911 42.8517 52.2895 42.3727C52.2895 40.3537 52.0162 37.6775 50.8156 35.8935L51.0919 33.4093L48.8503 30.7608C49.2103 30.0437 49.6208 29.3531 50.0786 28.6942C50.1554 28.5836 50.2322 28.4762 50.3151 28.3718C53.2246 28.1614 55.5199 25.7694 55.5199 22.8445C55.5199 22.7094 55.5199 22.5743 55.5045 22.4407C55.5045 22.387 55.4938 22.3317 55.4877 22.278C55.7717 22.4315 56.0588 22.585 56.3459 22.7386C56.3997 22.8153 56.4611 22.8921 56.5286 22.9827L56.5424 22.9996L56.6284 23.1055L56.6561 23.1378C56.6868 23.1746 56.719 23.2099 56.7513 23.2468L56.7728 23.2713C56.8541 23.3619 56.9401 23.454 57.0322 23.5446C57.0432 23.5535 57.0535 23.5633 57.0629 23.5738L57.1781 23.6813L57.2103 23.7104C57.3086 23.798 57.413 23.8824 57.5174 23.9622L57.5512 23.9868L57.6832 24.0774L57.7262 24.105C57.7769 24.1357 57.8291 24.168 57.8797 24.1971L57.8982 24.2079C57.958 24.2401 58.0195 24.2708 58.0809 24.3L58.1116 24.3123C58.1638 24.3348 58.215 24.3563 58.2651 24.3768L58.3127 24.3937C58.3664 24.4121 58.4186 24.429 58.4739 24.4443L58.5077 24.4536C58.5753 24.4704 58.6428 24.4843 58.7119 24.495H58.7196C58.7846 24.5055 58.8503 24.5122 58.9161 24.515H58.9606C59.0194 24.518 59.0784 24.518 59.1372 24.515H59.1756C59.2492 24.5107 59.3225 24.502 59.3951 24.4889C59.7387 24.4437 60.0685 24.3254 60.3624 24.1419C60.4372 24.0918 60.5036 24.0302 60.5589 23.9592C60.866 23.5569 60.5282 23.1163 60.5282 23.1163C60.4085 22.8307 59.6316 22.6296 59.6316 22.6296C59.6316 22.6296 57.175 21.6039 57.175 20.7871C57.175 19.9703 56.5609 15.7327 50.2214 14.7639C50.2214 14.7639 46.0974 14.5321 44.9383 16.7399L44.9137 16.9979C44.5728 17.2113 44.2903 17.6397 43.9541 17.7656C43.8088 17.7968 43.6687 17.8485 43.538 17.9191V17.8899C43.4992 17.9239 43.4674 17.9651 43.4444 18.0112C43.3721 18.1549 43.3288 18.3114 43.3169 18.4718C43.2823 18.6678 43.2143 18.8563 43.1158 19.0292C43.0883 19.0783 43.0576 19.1255 43.0237 19.1704L42.9976 19.2119C43.1758 19.2257 43.3548 19.1968 43.5196 19.1274C43.4936 19.3376 43.4421 19.5439 43.3661 19.7416C43.4637 19.7447 43.5601 19.7198 43.6439 19.6697C43.7278 19.6196 43.7955 19.5465 43.8389 19.4591V19.4468L43.8589 19.4191C43.8975 19.3481 43.9294 19.2735 43.9541 19.1965L43.9372 19.2149C43.9679 19.1151 43.9955 19.0138 44.0293 18.9155C44.0448 18.8602 44.0703 18.8081 44.1046 18.762C44.1455 18.7207 44.1956 18.6896 44.2508 18.6712C44.3061 18.6528 44.3648 18.6476 44.4224 18.6561L44.3594 19.9872H44.3871C44.3501 20.084 44.3049 20.1775 44.252 20.2666C44.0339 20.6198 43.6378 20.8608 43.492 21.2477C43.4291 21.4343 43.405 21.6319 43.4213 21.8281C43.4213 21.9432 43.4351 22.0599 43.4444 22.1751V22.1659C43.4659 22.4729 43.472 22.7647 43.3062 23.0119C43.1926 23.1807 43.0099 23.3082 42.9469 23.5001C42.9295 23.5536 42.9217 23.6097 42.9239 23.6659C42.9362 23.8342 42.9713 24 43.0283 24.1588C43.0289 24.1557 43.0289 24.1526 43.0283 24.1496C43.0666 24.2664 43.0755 24.3908 43.0544 24.5119C42.9853 24.819 42.6122 25.0754 42.6306 25.3686C42.6296 25.4072 42.6353 25.4456 42.6475 25.4822C42.7193 25.6255 42.8436 25.7355 42.9945 25.7893C43.2312 25.9239 43.5031 25.9839 43.7745 25.9613C43.8762 25.9429 43.9745 25.9092 44.0662 25.8615C43.9587 26.1087 43.8482 26.3528 43.7361 26.5846C43.7192 26.6215 43.7008 26.6583 43.6823 26.6952C43.6823 26.6952 42.7335 26.0611 42.1946 27.3538C42.0373 27.6225 41.9247 27.915 41.8614 28.2198C41.8344 28.3417 41.7964 28.4609 41.7478 28.576C41.5085 28.981 41.1505 29.3026 40.7222 29.4972C39.6229 30.0008 35.1826 35.5388 35.1043 36.9728C35.0659 37.5326 34.9712 38.0871 34.8218 38.6279C34.4723 39.9016 34.3825 41.2325 34.5577 42.5415C34.6126 42.9646 34.7035 43.3822 34.8295 43.7898C35.3008 45.2223 35.6156 47.8953 35.6156 47.8953L36.1253 52.5352C36.1064 53.1755 36.1341 53.8164 36.2082 54.4528C35.6878 55.047 33.5981 57.5235 34.3965 58.1975C35.0107 58.7288 36.0854 58.6413 36.6888 58.5322C36.1806 59.7897 35.3807 61.976 35.2747 63.4776C35.1212 65.6993 35.5373 68.6425 36.196 69.7726C36.8546 70.9026 39.0502 73.8013 39.0502 73.8013C39.0502 73.8013 38.9473 77.7779 39.7319 79.2227C40.5164 80.6674 40.8327 83.6644 40.8327 83.6644C40.8327 83.6644 41.5651 86.1947 41.1981 87.1251C40.8312 88.0555 41.8783 88.8294 40.779 89.4481C39.6797 90.0668 38.2733 104.012 38.2733 104.012C38.2733 104.012 37.7067 113.152 38.2733 113.618C38.3036 113.64 38.336 113.659 38.37 113.674V116.745C38.37 116.745 37.977 117.39 39.5753 117.52C40.67 117.608 43.7729 117.806 45.6138 117.921L47.0402 118.01C47.0402 118.01 50.4179 118.683 51.9103 118.01C53.4027 117.338 56.0481 117.353 55.655 115.577C55.6029 115.335 55.5331 115.097 55.4462 114.866C55.0148 113.763 54.2824 113.638 52.9328 113.331C52.8545 113.314 52.7793 113.298 52.7102 113.286C51.2885 113.039 50.8217 113.701 50.0249 112.839C49.3324 112.095 47.1277 111.261 46.3769 110.997C46.3953 110.941 46.4183 110.888 46.4368 110.831C46.2242 110.795 46.0264 110.698 45.8671 110.553L47.9015 110.682L49.1129 110.757C49.1129 110.757 51.984 111.33 53.2583 110.757C54.5327 110.185 56.7743 110.2 56.4396 108.691C56.3955 108.485 56.3365 108.283 56.263 108.086C55.8961 107.149 55.2727 107.046 54.1258 106.787C54.0598 106.773 53.9984 106.759 53.937 106.748C52.7286 106.538 52.3325 107.1 51.6554 106.369C51.0751 105.746 49.2434 105.047 48.5847 104.809C48.5847 104.468 48.1241 103.983 47.8339 103.497C47.4931 102.928 48.1226 100.94 48.1226 100.94L48.4818 92.6908C48.6187 92.6298 48.7634 92.5885 48.9117 92.5679C48.9117 92.5679 50.5361 91.0172 50.1692 89.3652C50.0944 88.8655 50.0554 88.3612 50.0525 87.8559C50.5868 87.36 51.3222 86.6277 51.5311 86.1763C51.8719 85.4408 51.5311 81.8773 51.5311 81.8773V68.251L54.2486 68.5259L56.7144 68.7792L57.4652 68.856L59.931 69.1047L65.598 69.6774L70.7045 68.7101L72.9139 68.2925L77.457 67.4327V56.3167L82.1598 55.5398ZM44.7571 18.7052L44.4408 18.6714C44.5452 18.676 44.6557 18.696 44.7571 18.7052Z" fill="url(#paint0_linear)"/>
<path d="M71.1375 62.7575C69.6021 64.9546 64.0826 63.7908 64.0826 63.7908L59.8051 59.7882L59.2293 59.2462L60.195 57.1949C60.195 57.1949 60.5021 57.2794 61.0287 57.4299C63.7939 58.2328 72.4333 60.9105 71.1375 62.7575Z" fill="#EFB7B9"/>
<path opacity="0.1" d="M61.0257 57.4299C60.8368 58.087 60.3194 59.0711 59.8051 59.7882L59.2293 59.2462L60.1951 57.1949C60.1951 57.1949 60.5052 57.2794 61.0257 57.4299Z" fill="black"/>
<path d="M46.3554 34.2983C46.3554 34.2983 42.4126 36.047 42.606 40.3414C42.7452 43.1081 43.0467 45.8642 43.5088 48.5955C43.5088 48.5955 42.7028 55.0578 46.0591 56.7236C49.4153 58.3895 52.5213 59.759 52.5213 59.759C52.5213 59.759 57.7723 60.324 58.4248 60.5574C59.0773 60.7908 61.1163 57.2226 60.7401 56.6668C60.3639 56.111 55.5445 54.9457 54.9303 54.0183C54.3162 53.091 52.896 52.5183 52.896 52.5183C52.896 52.5183 51.4297 51.6309 51.3299 50.8294C51.2301 50.028 51.617 49.4307 51.7153 49.0791C51.8135 48.7275 52.0623 45.3329 52.0623 45.3329C52.0623 45.3329 53.7174 33.2496 46.3554 34.2983Z" fill="#DCE6F2"/>
<path opacity="0.1" d="M48.9578 48.4189C48.9578 48.4189 43.5487 49.3247 44.0723 51.2178C44.0723 51.2178 46.036 49.1743 48.9578 48.4189Z" fill="black"/>
<path opacity="0.1" d="M48.9993 49.185C48.9993 49.185 46.0253 51.6124 46.6072 51.7368C47.1891 51.8611 48.9993 49.185 48.9993 49.185Z" fill="black"/>
<path opacity="0.1" d="M50.4287 50.031C50.4287 50.031 49.6318 51.6631 50.1216 51.5525C50.6114 51.442 50.4287 50.031 50.4287 50.031Z" fill="black"/>
<path opacity="0.1" d="M61.2253 57.6034L60.8967 57.5097C60.9903 57.2026 61.0164 56.9539 60.9397 56.8388C60.5635 56.283 55.7471 55.1192 55.1345 54.1903C54.5219 53.2614 53.1002 52.6902 53.1002 52.6902C53.1002 52.6902 51.6339 51.8028 51.5341 51.0014C51.4343 50.1999 51.8212 49.6027 51.9195 49.2511C52.0177 48.8995 52.2665 45.5033 52.2665 45.5033C52.2665 45.5033 53.917 33.4216 46.555 34.4702C46.555 34.4702 42.6122 36.2205 42.8041 40.5149C42.9433 43.2816 43.2453 46.0377 43.7084 48.769C43.7084 48.769 42.9024 55.2313 46.2586 56.8971C49.6149 58.563 52.7209 59.9325 52.7209 59.9325C52.7209 59.9325 57.9703 60.496 58.6244 60.7309C58.8716 60.8199 59.3183 60.3609 59.7559 59.7298L60.0046 59.9617L64.2821 63.9628C64.2821 63.9628 69.8017 65.1281 71.3371 62.931C72.6345 61.0825 63.9966 58.4048 61.2253 57.6034Z" fill="black"/>
<path d="M44.0861 18.1801C43.9358 18.2095 43.7919 18.2651 43.6608 18.3444C43.5073 18.4718 43.5073 18.6898 43.4689 18.8802C43.4238 19.145 43.3188 19.3961 43.1618 19.6141C43.3365 19.6269 43.5118 19.598 43.6731 19.5297C43.6468 19.7398 43.5953 19.946 43.5196 20.1438C43.6152 20.1462 43.7096 20.121 43.7913 20.0712C43.873 20.0214 43.9386 19.949 43.9802 19.8628C44.0614 19.6898 44.1257 19.5093 44.1721 19.3239C44.1865 19.2685 44.2115 19.2163 44.2458 19.1704C44.387 19.003 44.6496 19.0783 44.8676 19.0998C45.0491 19.1151 45.2313 19.0816 45.3954 19.0027C45.5596 18.9239 45.6996 18.8026 45.8011 18.6514C46.0329 18.2998 46.0468 17.4001 45.494 17.3049C44.9167 17.2097 44.5575 18.0051 44.0861 18.1801Z" fill="#965D7B"/>
<g opacity="0.1">
<path opacity="0.1" d="M43.6455 18.5332C43.6593 18.458 43.6685 18.3797 43.6854 18.3044C43.5395 18.4319 43.5318 18.6484 43.4935 18.8403C43.4741 18.951 43.4438 19.0595 43.4029 19.1642C43.5238 18.9716 43.6062 18.7573 43.6455 18.5332Z" fill="black"/>
<path opacity="0.1" d="M43.6946 19.8015C43.7711 19.6039 43.8226 19.3976 43.8481 19.1873C43.6944 19.252 43.528 19.2809 43.3614 19.2718C43.3129 19.3797 43.2538 19.4826 43.1849 19.5788C43.359 19.5923 43.5337 19.5639 43.6946 19.4959C43.6691 19.7062 43.6175 19.9125 43.5411 20.1101C43.6367 20.1123 43.7309 20.087 43.8126 20.0372C43.8943 19.9874 43.9599 19.9151 44.0017 19.8291C44.0399 19.7593 44.0708 19.6857 44.0938 19.6095C44.0487 19.6725 43.9885 19.7231 43.9188 19.7566C43.849 19.7902 43.7719 19.8056 43.6946 19.8015Z" fill="black"/>
<path opacity="0.1" d="M45.0426 18.7574C44.8246 18.7359 44.5605 18.6607 44.4193 18.828C44.3857 18.8743 44.3607 18.9263 44.3456 18.9815C44.3318 19.0215 44.3195 19.0629 44.3087 19.1044C44.4546 18.9892 44.691 19.0506 44.8891 19.0706C45.0705 19.0854 45.2525 19.0517 45.4166 18.9729C45.5806 18.8941 45.7208 18.7731 45.8226 18.6223C45.8691 18.5477 45.9038 18.4664 45.9255 18.3812C45.8203 18.5114 45.6848 18.6137 45.5309 18.6793C45.377 18.7449 45.2093 18.7717 45.0426 18.7574Z" fill="black"/>
</g>
<path d="M48.7075 30.8606L51.0489 33.6764L50.7434 36.5184L47.9138 32.0889L48.7075 30.8606Z" fill="#DCE6F2"/>
<path opacity="0.1" d="M51.0474 33.6764L50.7603 36.3495L50.7419 36.5184L48.1886 32.5203L47.9138 32.0889L47.9936 31.9645L48.706 30.8606L48.8641 31.051L51.0474 33.6764Z" fill="black"/>
<path d="M52.2634 27.0483C51.4712 27.2755 50.7142 28.0555 50.0556 29.0028C49.6104 29.6564 49.2122 30.3409 48.8641 31.051C48.6476 31.4839 48.4573 31.9 48.2991 32.2624L48.1886 32.5203C47.9214 33.1513 47.7725 33.5736 47.7725 33.5736C47.7725 33.5736 41.7079 29.0136 42.6674 28.7065C42.9899 28.6036 43.4136 27.9127 43.8328 27.0422L43.885 26.9316C44.1506 26.3727 44.4116 25.7494 44.6434 25.1629C45.1179 23.9576 45.4695 22.9105 45.4695 22.9105C45.4695 22.9105 54.6816 26.3574 52.2634 27.0483Z" fill="#EFB7B9"/>
<path d="M55.8914 22.6541C55.8914 22.6541 57.2917 25.1874 59.1725 24.842C61.0533 24.4965 60.2795 23.4817 60.2795 23.4817L55.8914 22.6541Z" fill="#444053"/>
<path d="M53.1785 110.346C51.9379 110.912 49.1328 110.346 49.1328 110.346L47.9506 110.272C46.4152 110.174 43.8451 110.008 42.9361 109.934C41.6096 109.825 41.9351 109.282 41.9351 109.282V105.998L48.3713 104.367C48.3713 104.367 50.9154 105.238 51.6124 105.998C52.2742 106.722 52.6611 106.165 53.8418 106.374C53.9001 106.385 53.9615 106.397 54.026 106.412C55.1468 106.669 55.7548 106.77 56.1141 107.699C56.1863 107.894 56.2443 108.094 56.2876 108.298C56.6192 109.793 54.4175 109.782 53.1785 110.346Z" fill="#A36468"/>
<path opacity="0.1" d="M56.1141 107.699C55.8834 107.843 55.641 107.967 55.3894 108.07C54.5449 108.456 53.742 108.926 52.8883 109.289C52.0346 109.653 51.115 109.913 50.1907 109.844C49.707 109.808 49.2127 109.69 48.7505 109.828C48.4647 109.939 48.1955 110.088 47.9506 110.272C46.4152 110.174 43.8451 110.008 42.9361 109.934C41.6096 109.825 41.9351 109.282 41.9351 109.282V108.898C41.9827 108.898 42.0364 108.884 42.0978 108.879C42.4156 108.874 42.732 108.922 43.0344 109.019C43.7007 109.2 44.364 109.378 45.0304 109.557C45.0852 109.35 45.1815 109.156 45.3135 108.988C45.4454 108.819 45.6103 108.68 45.798 108.577C46.1784 108.375 46.6052 108.277 47.0355 108.293C48.0688 108.307 49.0468 108.797 50.0786 108.846C50.3671 108.872 50.6575 108.824 50.9215 108.704C51.0628 108.634 51.1871 108.531 51.3253 108.453C51.5464 108.346 51.7801 108.267 52.0208 108.218C52.6974 108.049 53.3617 107.835 54.0091 107.576C54.1933 107.504 54.4083 107.373 54.3837 107.177C54.3515 106.916 53.9415 106.885 53.8341 106.646C53.8151 106.602 53.8063 106.555 53.8085 106.508C53.8106 106.461 53.8236 106.415 53.8464 106.374C53.9047 106.385 53.9661 106.397 54.0306 106.412C55.1468 106.669 55.7548 106.77 56.1141 107.699Z" fill="black"/>
<path d="M51.8673 117.531C50.4087 118.198 47.1077 117.531 47.1077 117.531L45.7182 117.45C43.9188 117.335 40.888 117.143 39.8178 117.052C38.2564 116.923 38.6402 116.285 38.6402 116.285V112.414L46.2141 110.495C46.2141 110.495 49.2081 111.519 50.0279 112.414C50.8064 113.266 51.2562 112.61 52.6519 112.856C52.7209 112.868 52.7931 112.884 52.8683 112.901C54.1872 113.208 54.9027 113.323 55.3249 114.416C55.4104 114.646 55.4786 114.881 55.5291 115.121C55.9099 116.88 53.3259 116.866 51.8673 117.531Z" fill="#A36468"/>
<path opacity="0.1" d="M55.3218 114.416C55.0505 114.585 54.7655 114.732 54.4697 114.854C53.4763 115.307 52.5306 115.859 51.5264 116.288C50.5223 116.716 49.4399 117.02 48.3513 116.94C47.7833 116.899 47.2014 116.756 46.6624 116.922C46.3248 117.053 46.007 117.231 45.7182 117.45C43.9188 117.335 40.888 117.143 39.8178 117.052C38.2564 116.923 38.6402 116.285 38.6402 116.285V115.833C38.7038 115.823 38.7678 115.816 38.8321 115.812C39.2062 115.805 39.5787 115.86 39.9345 115.976L42.2821 116.608C42.3475 116.364 42.4619 116.136 42.6185 115.938C42.775 115.74 42.9704 115.576 43.1925 115.455C43.64 115.217 44.1429 115.101 44.6496 115.121C45.8656 115.138 47.0156 115.713 48.23 115.772C48.5683 115.803 48.9087 115.746 49.2188 115.607C49.3862 115.523 49.5259 115.402 49.6948 115.311C49.9544 115.184 50.2295 115.091 50.5131 115.035C51.3049 114.835 52.0825 114.583 52.8407 114.279C53.0572 114.193 53.3105 114.04 53.2814 113.81C53.243 113.502 52.7609 113.466 52.6334 113.183C52.612 113.132 52.6022 113.077 52.6048 113.022C52.6075 112.966 52.6225 112.912 52.6488 112.864C52.7179 112.876 52.79 112.891 52.8653 112.908C54.1841 113.203 54.8996 113.323 55.3218 114.416Z" fill="black"/>
<path d="M48.5663 90.9711L48.1563 100.618C48.1563 100.618 47.5422 102.588 47.8754 103.151C48.2085 103.715 48.7705 104.276 48.5663 104.61C48.3621 104.943 45.9055 108.545 45.1117 107.163C44.3179 105.781 43.5349 99.7933 43.5349 99.7933L44.2673 92.3975L48.5663 90.9711Z" fill="#444053"/>
<path d="M50.3442 66.9368L51.4834 68.4598V81.7069C51.4834 81.7069 51.8166 85.2382 51.4834 85.9675C51.1503 86.6968 49.4614 88.1553 49.4614 88.1553L48.0412 80.8624L48.3483 73.1473L50.3442 66.9368Z" fill="#444053"/>
<path opacity="0.1" d="M48.5663 90.9711L48.1563 100.618C48.1563 100.618 47.5422 102.588 47.8754 103.151C48.2085 103.715 48.7705 104.276 48.5663 104.61C48.3621 104.943 45.9055 108.545 45.1117 107.163C44.3179 105.781 43.5349 99.7933 43.5349 99.7933L44.2673 92.3975L48.5663 90.9711Z" fill="black"/>
<path opacity="0.1" d="M50.3442 66.9368L51.4834 68.4598V81.7069C51.4834 81.7069 51.8166 85.2382 51.4834 85.9675C51.1503 86.6968 49.4614 88.1553 49.4614 88.1553L48.0412 80.8624L48.3483 73.1473L50.3442 66.9368Z" fill="black"/>
<path d="M51.4835 61.2867V68.4522L50.2045 74.0301C50.2045 74.0301 49.7946 87.4906 50.1523 89.1273C50.51 90.764 48.924 92.3008 48.924 92.3008C48.924 92.3008 48.0028 92.4037 48.0028 93.1192C48.0028 93.8347 46.4675 95.8828 46.4675 95.8828L46.5181 99.8747C46.5181 99.8747 47.1845 107.347 46.1604 108.78C45.1363 110.212 46.5181 110.418 46.5181 110.418C45.2392 114.614 39.0978 113.642 38.5435 113.182C37.9892 112.721 38.5435 103.662 38.5435 103.662C38.5435 103.662 39.9161 89.8443 40.9909 89.2301C42.0656 88.616 41.0431 87.8483 41.4008 86.9271C41.7585 86.0059 41.0431 83.4987 41.0431 83.4987C41.0431 83.4987 40.736 80.5293 39.9683 79.0968C39.2006 77.6643 39.302 73.7231 39.302 73.7231C39.302 73.7231 37.1525 70.8566 36.5138 69.7312C35.8751 68.6057 35.4636 65.6886 35.6171 63.4869C35.7215 61.9991 36.503 59.8327 36.9989 58.586C37.2369 57.9888 37.4089 57.6019 37.4089 57.6019L37.5547 57.6403L45.9408 59.8358L51.4835 61.2867Z" fill="#444053"/>
<path opacity="0.1" d="M52.2634 27.0483C51.4712 27.2755 50.7142 28.0555 50.0556 29.0028H49.8836C48.9182 29.0035 47.9696 28.7493 47.1339 28.2659C46.2982 27.7825 45.6048 27.0871 45.124 26.2499C44.9231 25.903 44.7614 25.5348 44.6419 25.1521C45.1163 23.9469 45.4679 22.8998 45.4679 22.8998C45.4679 22.8998 54.6816 26.3574 52.2634 27.0483Z" fill="black"/>
<path d="M55.3725 23.2099C55.3739 24.05 55.1824 24.8792 54.8128 25.6336C54.4432 26.388 53.9054 27.0476 53.2407 27.5614C52.5761 28.0752 51.8024 28.4296 50.9792 28.5973C50.156 28.7649 49.3053 28.7414 48.4927 28.5286C47.68 28.3157 46.9271 27.9191 46.2918 27.3693C45.6566 26.8196 45.156 26.1314 44.8286 25.3577C44.5013 24.584 44.3559 23.7455 44.4036 22.9068C44.4514 22.0681 44.691 21.2515 45.1041 20.52C45.2705 20.2228 45.4648 19.9421 45.6844 19.6817C46.0465 19.2504 46.472 18.8766 46.9465 18.5732C47.7479 18.0639 48.6676 17.7713 49.616 17.7238C50.5643 17.6763 51.5087 17.8756 52.3569 18.3023C53.2051 18.729 53.9282 19.3684 54.4554 20.1581C54.9826 20.9477 55.296 21.8607 55.3648 22.8077C55.3679 22.9428 55.3725 23.0764 55.3725 23.2099Z" fill="#EFB7B9"/>
<path opacity="0.1" d="M50.7603 36.3495L50.7419 36.5184L48.1886 32.5265C47.9214 33.1575 47.7725 33.5797 47.7725 33.5797C47.7725 33.5797 41.7079 29.0136 42.6674 28.7065C42.9899 28.6036 43.4136 27.9127 43.8328 27.0422L43.885 26.9316C44.3302 28.2582 46.9173 30.9097 47.9936 31.9722C48.118 32.095 48.2208 32.1964 48.3007 32.2701L48.465 32.4236L48.5509 32.5096C48.9424 32.9134 50.5945 34.6944 50.7603 36.3495Z" fill="black"/>
<path d="M52.6687 49.8944L52.3893 58.8869L52.3402 60.4883C52.3402 60.4883 49.03 60.1812 45.9408 59.8434C43.4536 59.5717 41.1091 59.2784 40.7483 59.1065C40.2877 58.89 39.3004 58.7226 38.522 58.6167C37.9201 58.5353 37.4473 58.4923 37.4473 58.4923C37.4473 58.4923 37.2707 58.5445 36.9989 58.5937C36.4063 58.7011 35.3653 58.7887 34.7589 58.262C33.9835 57.588 36.0209 55.1391 36.5291 54.5511L36.6412 54.4237L36.4493 52.6503L35.9503 48.0519C35.9503 48.0519 35.6432 45.4035 35.1826 43.9833C35.0595 43.5795 34.9706 43.166 34.917 42.7473C34.7459 41.4502 34.8335 40.132 35.1749 38.869C35.3208 38.3323 35.4134 37.7826 35.4513 37.2277C35.5281 35.8075 39.8654 30.3186 40.9402 29.8196C41.4237 29.5942 41.8127 29.2062 42.0395 28.7234C42.1144 28.5716 42.1706 28.4112 42.2068 28.2459C42.6675 26.2499 43.8328 27.0422 43.8328 27.0422C44.1138 28.6036 48.4634 32.7368 48.4634 32.7368L48.5494 32.8228C48.9808 33.265 50.9031 35.3408 50.7664 37.1126C50.7391 37.772 50.8376 38.4306 51.0566 39.0532C51.9414 41.8391 52.45 44.7307 52.5689 47.6512L52.6687 49.8944Z" fill="#DCE6F2"/>
<path opacity="0.1" d="M46.5058 39.216C46.5058 39.216 45.4311 41.8261 44.625 42.2483C43.819 42.6705 46.8897 43.1388 46.5058 39.216Z" fill="black"/>
<path opacity="0.1" d="M47.3119 44.0907C47.3119 44.0907 44.8553 44.3978 44.8553 44.8584C44.8553 45.319 47.3119 44.0907 47.3119 44.0907Z" fill="black"/>
<path opacity="0.1" d="M49.8836 47.0847C49.8836 47.0847 46.3139 54.6847 45.3159 54.915C44.318 55.1453 49.8836 47.0847 49.8836 47.0847Z" fill="black"/>
<path opacity="0.1" d="M48.3958 33.1222L45.4434 34.4057L41.8798 29.0228C41.9547 28.871 42.0109 28.7106 42.0472 28.5453C42.5078 26.5493 43.6731 27.3416 43.6731 27.3416C43.9541 28.903 48.3037 33.0362 48.3037 33.0362L48.3958 33.1222Z" fill="black"/>
<path d="M48.5494 32.8151L45.5969 34.0986L42.0334 28.7157C42.1082 28.5639 42.1644 28.4035 42.2007 28.2382C42.6613 26.2422 43.8266 27.0345 43.8266 27.0345C44.1076 28.5959 48.4573 32.7291 48.4573 32.7291L48.5494 32.8151Z" fill="#DCE6F2"/>
<path opacity="0.1" d="M52.3402 60.4883C52.3402 60.4883 49.03 60.1812 45.9408 59.8435L51.4835 61.2944V62.9833C51.2409 63.2028 51.0305 63.3164 50.8939 63.2581C50.2552 62.9894 45.0427 62.145 45.0427 62.145C45.0427 62.145 42.0149 60.6096 38.7477 58.7672C38.6684 58.7232 38.5915 58.6751 38.5174 58.6229C38.1364 58.3642 37.8082 58.0354 37.5501 57.6541C36.9467 56.7804 36.6519 55.6581 36.5245 54.5572C36.4529 53.9263 36.4262 53.2912 36.4447 52.6565C36.4605 51.9368 36.5262 51.2191 36.6412 50.5085C36.3252 47.7563 36.1714 44.9879 36.1806 42.2176C36.219 37.9186 40.2493 36.3833 40.2493 36.3833C47.6574 35.7307 45.3605 47.7065 45.3605 47.7065C45.3605 47.7065 44.9321 51.0843 44.8154 51.4297C44.6987 51.7752 44.2796 52.3509 44.3364 53.157C44.3932 53.9631 45.8088 54.9273 45.8088 54.9273C45.8088 54.9273 47.1906 55.5752 47.7602 56.5348C48.1748 57.2426 50.8678 58.2022 52.3893 58.8869L52.3402 60.4883Z" fill="black"/>
<path opacity="0.1" d="M54.8213 19.8015C54.8241 20.0543 54.7717 20.3048 54.6678 20.5354C54.5891 20.7235 54.4978 20.9061 54.3945 21.0819C54.2329 21.4054 54.0035 21.6903 53.722 21.9172C53.3673 22.1705 52.919 22.2411 52.4937 22.344C52.0684 22.4469 51.6262 22.6111 51.3836 22.9735C51.2522 23.2064 51.1643 23.4614 51.1242 23.7258C51.0835 23.99 50.978 24.2401 50.8171 24.4536C50.7333 24.5578 50.6173 24.6313 50.4872 24.6624C50.3572 24.6935 50.2205 24.6806 50.0986 24.6255C49.9702 24.539 49.8728 24.4136 49.8207 24.2678C49.6456 23.8732 49.6011 23.4356 49.5305 23.0103C49.4599 22.585 49.3601 22.1475 49.099 21.8051C48.838 21.4627 48.3759 21.237 47.966 21.3706C47.8288 21.4234 47.7036 21.5034 47.5981 21.6058C47.4926 21.7081 47.4088 21.8308 47.3518 21.9663C47.2384 22.2376 47.1604 22.5225 47.12 22.8138C46.9296 23.8558 46.7049 24.8917 46.446 25.9214C46.4381 25.9636 46.4207 26.0035 46.3953 26.0381C46.3545 26.0787 46.2994 26.1019 46.2418 26.1025C45.8978 26.1486 45.5677 25.9076 45.2207 25.9337C45.185 25.936 45.1495 25.9417 45.1148 25.9505C44.5538 24.9755 44.3061 23.8516 44.4052 22.7311C44.5044 21.6106 44.9456 20.5477 45.6691 19.6863L45.6967 19.6786C45.9275 19.5967 46.1373 19.4645 46.3108 19.2917C46.5325 19.0699 46.7377 18.8323 46.925 18.5808L47.0478 18.4273C47.4007 18.0022 47.8027 17.6203 48.2454 17.2896C48.3662 17.1906 48.5048 17.1156 48.6538 17.0685C48.7813 17.0437 48.9119 17.0395 49.0407 17.0562C49.5709 17.1199 50.1055 17.1399 50.639 17.1161C51.0107 17.0577 51.3854 17.0198 51.7613 17.0025C52.7332 17.0301 53.5623 17.7164 54.1765 18.4688C54.5066 18.8541 54.8013 19.2979 54.8213 19.8015Z" fill="black"/>
<path d="M44.387 20.6659C44.1736 21.0159 43.7883 21.2539 43.6439 21.6377C43.4321 22.1951 43.7898 22.889 43.4612 23.3865C43.3522 23.5539 43.1726 23.6782 43.1112 23.8701C43.0068 24.1941 43.2923 24.5396 43.2186 24.8727C43.1449 25.2059 42.7058 25.4869 42.8225 25.8124C42.8915 25.9543 43.0124 26.0643 43.1603 26.1194C43.3929 26.2529 43.6607 26.3123 43.928 26.2899C44.3471 26.2208 44.6588 25.8093 45.0841 25.7786C45.4296 25.754 45.7597 25.9935 46.1036 25.949C46.1612 25.947 46.216 25.9234 46.2571 25.883C46.2832 25.8488 46.3006 25.8087 46.3078 25.7663C46.5657 24.7376 46.7909 23.7018 46.9833 22.6587C47.0225 22.3674 47.1 22.0824 47.2136 21.8112C47.2711 21.676 47.355 21.5536 47.4605 21.4513C47.5659 21.349 47.6908 21.2688 47.8278 21.2155C48.2377 21.0835 48.6983 21.3076 48.9609 21.65C49.2234 21.9924 49.3232 22.43 49.3938 22.8553C49.4645 23.2806 49.509 23.7181 49.6825 24.1127C49.7352 24.2591 49.833 24.3849 49.9619 24.472C50.1922 24.6056 50.5024 24.4996 50.6789 24.3C50.8407 24.0865 50.9463 23.8357 50.986 23.5707C51.026 23.3068 51.114 23.0523 51.2455 22.82C51.4881 22.4576 51.9318 22.2933 52.3555 22.1905C52.7793 22.0876 53.2261 22.0154 53.5838 21.7621C53.865 21.5354 54.0943 21.2512 54.2563 20.9284C54.4835 20.5323 54.6954 20.1024 54.677 19.6464C54.657 19.1489 54.3622 18.7052 54.0475 18.3183C53.4333 17.566 52.6027 16.8797 51.6308 16.8536C51.2548 16.8693 50.88 16.9072 50.5085 16.9672C49.975 16.9912 49.4403 16.9706 48.9102 16.9058C48.7813 16.8904 48.6508 16.895 48.5233 16.9196C48.3742 16.9651 48.2358 17.0403 48.1164 17.1407C47.6733 17.4708 47.2708 17.8522 46.9173 18.2768C46.6894 18.5791 46.4422 18.8663 46.1773 19.1366C46.0036 19.3097 45.7939 19.4424 45.5631 19.5251C45.4096 19.5681 45.2561 19.5374 45.1102 19.585C44.6573 19.7278 44.5974 20.3189 44.387 20.6659Z" fill="#965D7B"/>
<path opacity="0.1" d="M59.1725 24.8405C57.9442 25.0662 56.9263 24.0728 56.3628 23.3481C56.1897 23.128 56.0322 22.8961 55.8914 22.6541L60.1075 23.4494L60.2779 23.4817C60.2779 23.4817 61.0533 24.4965 59.1725 24.8405Z" fill="black"/>
<g opacity="0.1">
<path opacity="0.1" d="M43.2186 24.4336C43.2358 24.2328 43.2053 24.0308 43.1296 23.8441C43.1296 23.8594 43.1158 23.8748 43.1112 23.8901C43.0451 24.0959 43.1342 24.3093 43.191 24.5227C43.2032 24.494 43.2125 24.4642 43.2186 24.4336Z" fill="black"/>
<path opacity="0.1" d="M43.584 21.9202C43.5683 22.1325 43.5724 22.3459 43.5963 22.5574C43.6121 22.3451 43.608 22.1318 43.584 21.9202Z" fill="black"/>
<path opacity="0.1" d="M54.2471 20.4847C54.0855 20.8082 53.8561 21.093 53.5746 21.3199C53.2199 21.5733 52.7732 21.6439 52.3463 21.7467C51.9195 21.8496 51.4788 22.0139 51.2363 22.3762C51.105 22.6093 51.0171 22.8642 50.9768 23.1286C50.9368 23.3935 50.8312 23.6441 50.6697 23.8579C50.4931 24.0575 50.183 24.1649 49.9527 24.0298C49.8238 23.9427 49.726 23.8169 49.6733 23.6705C49.4998 23.276 49.4537 22.8399 49.3846 22.4131C49.3155 21.9863 49.2127 21.5502 48.9517 21.2078C48.6906 20.8655 48.2285 20.6398 47.8186 20.7733C47.6815 20.8264 47.5565 20.9065 47.451 21.0088C47.3455 21.1111 47.2616 21.2337 47.2044 21.3691C47.0908 21.6402 47.0133 21.9252 46.9741 22.2166C46.7827 23.2596 46.5575 24.2954 46.2986 25.3241C46.2914 25.3665 46.274 25.4066 46.2479 25.4408C46.2068 25.4813 46.152 25.5048 46.0944 25.5068C45.7504 25.5514 45.4203 25.3118 45.0749 25.3364C44.6496 25.3671 44.3379 25.7786 43.9188 25.8461C43.6514 25.8701 43.3832 25.8106 43.1511 25.6757C43.0444 25.6298 42.9486 25.5618 42.8701 25.4761C42.8342 25.5276 42.8104 25.5865 42.8006 25.6485C42.7907 25.7104 42.7951 25.7738 42.8133 25.8339C42.8809 25.9768 43.0024 26.0872 43.1511 26.1409C43.3832 26.2758 43.6514 26.3353 43.9188 26.3114C44.3379 26.2438 44.6496 25.8323 45.0749 25.8016C45.4203 25.7771 45.7504 26.0166 46.0944 25.972C46.152 25.97 46.2068 25.9465 46.2479 25.906C46.274 25.8718 46.2914 25.8318 46.2986 25.7893C46.5565 24.7658 46.7817 23.7299 46.9741 22.6818C47.0133 22.3904 47.0908 22.1054 47.2044 21.8343C47.2616 21.6989 47.3455 21.5764 47.451 21.474C47.5565 21.3717 47.6815 21.2916 47.8186 21.2385C48.2285 21.105 48.6891 21.3307 48.9517 21.6731C49.2142 22.0154 49.314 22.453 49.3846 22.8783C49.4552 23.3036 49.4998 23.7412 49.6733 24.1358C49.726 24.2821 49.8238 24.4079 49.9527 24.495C50.183 24.6286 50.4931 24.5227 50.6697 24.3231C50.8312 24.1094 50.9368 23.8587 50.9768 23.5938C51.0171 23.3294 51.105 23.0745 51.2363 22.8415C51.4788 22.4791 51.9226 22.3164 52.3463 22.212C52.7701 22.1076 53.2169 22.0385 53.5746 21.7851C53.8561 21.5582 54.0855 21.2734 54.2471 20.9499C54.4743 20.5553 54.6862 20.1254 54.6678 19.6694C54.6648 19.6108 54.6586 19.5524 54.6494 19.4944C54.5753 19.8458 54.439 20.1812 54.2471 20.4847Z" fill="black"/>
</g>
<path opacity="0.1" d="M54.6739 20.5307C55.0677 21.2308 55.301 22.0095 55.3572 22.8107C53.9892 22.043 52.7025 21.2001 52.0531 20.9069C50.9215 20.3956 46.6901 20.4724 45.0995 20.52C45.2658 20.2227 45.4602 19.942 45.6798 19.6817C46.0433 19.25 46.4704 18.8762 46.9465 18.5731C47.577 18.173 48.2824 17.9056 49.0197 17.7874C49.7571 17.6692 50.5107 17.7026 51.2347 17.8855C51.9587 18.0684 52.6378 18.3971 53.2304 18.8514C53.8231 19.3057 54.3169 19.876 54.6816 20.5276L54.6739 20.5307Z" fill="black"/>
<path opacity="0.1" d="M59.5563 24.1895C58.8178 24.4167 57.6126 23.9776 56.3628 23.3481C56.1897 23.128 56.0322 22.8961 55.8914 22.6541L60.1075 23.4494C60.387 23.6398 60.4576 23.9116 59.5563 24.1895Z" fill="black"/>
<path d="M50.2106 15.2077C50.2106 15.2077 46.1803 14.9774 45.0472 17.1653L44.8645 19.1044L44.5575 19.0707L44.496 20.3895C44.496 20.3895 50.6559 20.1208 52.0577 20.7534C53.4594 21.386 57.8152 24.5734 59.5609 24.036C61.3066 23.4986 59.4074 22.9996 59.4074 22.9996C59.4074 22.9996 57.0046 21.9817 57.0046 21.1833C57.0046 20.3849 56.4088 16.1673 50.2106 15.2077Z" fill="#444053"/>
<path opacity="0.1" d="M42.4371 87.0929C42.4371 87.0929 45.0089 89.5878 46.122 89.3959C46.122 89.3959 42.9745 89.1272 42.4371 87.0929Z" fill="black"/>
<path opacity="0.1" d="M41.8998 88.249C41.8998 88.249 42.1301 89.5326 42.7442 89.4067C43.3584 89.2808 41.8998 88.249 41.8998 88.249Z" fill="black"/>
<path opacity="0.1" d="M45.9301 109.701C45.9301 109.701 42.279 112.541 42.8947 112.618C43.5104 112.695 45.9301 109.701 45.9301 109.701Z" fill="black"/>
<path d="M50.814 53.3274L62.6363 51.4036V62.5964L51.4036 62.0083L50.814 53.3274Z" fill="#0097E6"/>
<path opacity="0.05" d="M50.814 53.3274L62.6363 51.4036V62.5964L51.4036 62.0083L50.814 53.3274Z" fill="black"/>
<path d="M62.6363 51.4036L76.8137 52.4646L76.0291 62.2048L62.6363 62.5964V51.4036Z" fill="#0097E6"/>
<path opacity="0.1" d="M62.6363 51.4036L76.8137 52.4646L76.0291 62.2048L62.6363 62.5964V51.4036Z" fill="black"/>
<path d="M66.9951 47.9874L62.6363 51.4036L76.8137 52.4645L79.1306 48.9685L66.9951 47.9874Z" fill="#0097E6"/>
<path d="M46.5335 49.5965L57.1765 48.3007L62.6363 51.4036L50.814 53.3274L46.5335 49.5965Z" fill="#0097E6"/>
<path d="M65.2279 54.31V69.6129L59.6899 69.0448L57.2809 68.7992L56.547 68.7224L54.1396 68.4752L50.814 68.1343V53.3274L62.6347 54.1319L65.2279 54.31Z" fill="#0097E6"/>
<path d="M76.8137 52.4645V67.3882L72.375 68.2403L70.2163 68.6549L65.2279 69.6129V54.31L76.8137 52.4645Z" fill="#0097E6"/>
<path opacity="0.05" d="M76.8137 52.4645V67.3882L72.375 68.2403L70.2163 68.6549L65.2279 69.6129V54.31L76.8137 52.4645Z" fill="black"/>
<path d="M46.5335 56.5486L50.814 53.3274L65.2279 54.31L63.1061 57.8843L46.5335 56.5486Z" fill="#0097E6"/>
<path opacity="0.1" d="M46.5335 56.5486L50.814 53.3274L65.2279 54.31L63.1061 57.8843L46.5335 56.5486Z" fill="white"/>
<path d="M76.8137 52.4645L65.2279 54.31L68.9988 57.6878L81.409 55.6059L76.8137 52.4645Z" fill="#0097E6"/>
<path opacity="0.1" d="M76.8137 52.4645L65.2279 54.31L68.9988 57.6878L81.409 55.6059L76.8137 52.4645Z" fill="white"/>
<path opacity="0.1" d="M72.375 68.2403L70.2163 68.6548V65.4659L72.2384 64.9562L72.375 68.2403Z" fill="white"/>
<path opacity="0.1" d="M59.6899 66.9352V69.0448L57.2809 68.7992V66.9352H59.6899Z" fill="white"/>
<path opacity="0.1" d="M56.547 67.6001V68.7224L54.1396 68.4752V67.6001H56.547Z" fill="white"/>
<path opacity="0.1" d="M63.7786 65.816C62.1281 67.9271 56.6776 66.4685 56.6776 66.4685L52.6273 62.2432L52.0776 61.6705L53.1524 59.6746C53.1524 59.6746 53.4595 59.7759 53.9723 59.954C56.6868 60.9028 65.1681 64.0396 63.7786 65.816Z" fill="black"/>
<path d="M63.625 65.5089C61.9745 67.62 56.524 66.1614 56.524 66.1614L52.4738 61.9361L51.9241 61.3635L52.9989 59.3675C52.9989 59.3675 53.3059 59.4688 53.8187 59.6469C56.5332 60.5958 65.0145 63.7325 63.625 65.5089Z" fill="#EFB7B9"/>
<path opacity="0.1" d="M53.8126 59.6469C53.5884 60.2918 53.0188 61.2468 52.4676 61.9362L51.9179 61.3635L52.9927 59.3675C52.9927 59.3675 53.3013 59.4688 53.8126 59.6469Z" fill="black"/>
<path d="M40.4028 35.7691C40.4028 35.7691 36.3725 37.3045 36.3341 41.6034C36.325 44.3737 36.4788 47.1421 36.7947 49.8944C36.7947 49.8944 35.6432 56.3044 38.9058 58.1469C42.1685 59.9893 45.2008 61.5246 45.2008 61.5246C45.2008 61.5246 50.4133 62.3691 51.0535 62.6378C51.6938 62.9065 53.9185 59.4519 53.5731 58.8762C53.2276 58.3004 48.4818 56.8802 47.9184 55.9206C47.3549 54.961 45.9669 54.3146 45.9669 54.3146C45.9669 54.3146 44.5513 53.3489 44.4945 52.5428C44.4377 51.7368 44.8553 51.161 44.9736 50.8156C45.0918 50.4701 45.5201 47.0923 45.5201 47.0923C45.5201 47.0923 47.8109 35.1089 40.4028 35.7691Z" fill="#DCE6F2"/>
<path opacity="0.1" d="M42.2452 50.0018C42.2452 50.0018 36.7947 50.616 37.217 52.5352C37.217 52.5352 39.2881 50.5991 42.2452 50.0018Z" fill="black"/>
<path opacity="0.1" d="M42.2452 50.7695C42.2452 50.7695 39.1515 53.0342 39.7196 53.1877C40.2877 53.3413 42.2452 50.7695 42.2452 50.7695Z" fill="black"/>
<path opacity="0.1" d="M43.627 51.6907C43.627 51.6907 42.7442 53.2782 43.2432 53.1953C43.7422 53.1124 43.627 51.6907 43.627 51.6907Z" fill="black"/>
<path d="M100.377 17.2558C100.377 17.2558 94.5424 16.9043 95.2241 20.9975C95.2241 20.9975 95.0875 21.7207 95.7431 22.0492C95.7431 22.0492 95.7538 21.7422 96.3419 21.8481C96.5513 21.8833 96.7641 21.8936 96.976 21.8788C97.263 21.8597 97.5359 21.7469 97.7528 21.5579C97.7528 21.5579 99.3941 20.8808 100.033 18.197C100.033 18.197 100.506 17.6105 100.493 17.4601L99.5078 17.8823C99.5078 17.8823 99.844 18.5931 99.5784 19.1843C99.5784 19.1843 99.5477 17.9084 99.3573 17.9375C99.3189 17.9375 98.846 18.1847 98.846 18.1847C98.846 18.1847 99.4248 19.4222 98.9873 20.3235C98.9873 20.3235 99.1531 18.7973 98.6648 18.2738L97.9709 18.6791C97.9709 18.6791 98.648 19.9581 98.1889 21.0021C98.1889 21.0021 98.3071 19.4007 97.825 18.7774L97.1955 19.2672C97.1955 19.2672 97.8327 20.5292 97.4442 21.3952C97.4442 21.3952 97.3936 19.5312 97.0589 19.39C97.0589 19.39 96.5092 19.8752 96.4263 20.0748C96.4263 20.0748 96.8608 20.996 96.5906 21.4735C96.5906 21.4735 96.4248 20.2314 96.2835 20.2252C96.2835 20.2252 95.7354 21.0482 95.6786 21.607C95.7051 21.086 95.8676 20.581 96.1499 20.1423C95.834 20.2021 95.5426 20.3531 95.3116 20.5768C95.3116 20.5768 95.3961 19.9949 96.285 19.9443C96.285 19.9443 96.7457 19.3194 96.8593 19.281C96.8593 19.281 95.9749 19.2073 95.4391 19.4453C95.4391 19.4453 95.9104 18.8971 97.022 19.1382L97.6362 18.6315C97.6362 18.6315 96.4724 18.478 95.978 18.6484C95.978 18.6484 96.5461 18.1632 97.8035 18.5164L98.4791 18.1126C98.4791 18.1126 97.4872 17.8976 96.8961 17.9759C96.8961 17.9759 97.5195 17.6397 98.6771 18.0036L99.1608 17.7871C99.1608 17.7871 98.433 17.6443 98.2211 17.6213C98.0093 17.5982 97.997 17.5399 97.997 17.5399C98.4574 17.4633 98.93 17.5164 99.3619 17.6934C99.3619 17.6934 100.398 17.3203 100.377 17.2558Z" fill="#0097E6"/>
<path opacity="0.1" d="M118.104 37.7283C118.104 37.7283 112.27 37.3767 112.951 41.4699C112.951 41.4699 112.815 42.1931 113.47 42.5216C113.47 42.5216 113.481 42.2146 114.071 42.3205C114.28 42.3557 114.493 42.366 114.705 42.3512C114.988 42.3306 115.258 42.2186 115.472 42.0319C115.472 42.0319 117.115 41.3532 117.754 38.6694C117.754 38.6694 118.225 38.0845 118.207 37.934L117.221 38.3547C117.221 38.3547 117.557 39.0656 117.293 39.6567C117.293 39.6567 117.261 38.3808 117.072 38.41C117.034 38.41 116.559 38.6571 116.559 38.6571C116.559 38.6571 117.14 39.8962 116.702 40.7959C116.702 40.7959 116.868 39.2698 116.378 38.7462L115.692 39.1469C115.692 39.1469 116.369 40.4259 115.91 41.4699C115.91 41.4699 116.028 39.8685 115.546 39.2452L114.918 39.7365C114.918 39.7365 115.554 40.997 115.167 41.863C115.167 41.863 115.116 39.999 114.781 39.8578C114.781 39.8578 114.232 40.343 114.147 40.5426C114.147 40.5426 114.583 41.4638 114.313 41.9413C114.313 41.9413 114.147 40.6992 114.006 40.693C114.006 40.693 113.458 41.516 113.401 42.0748C113.429 41.5538 113.592 41.0489 113.874 40.6101C113.558 40.67 113.266 40.821 113.034 41.0446C113.034 41.0446 113.12 40.4627 114.009 40.4121C114.009 40.4121 114.462 39.7872 114.583 39.7488C114.583 39.7488 113.699 39.6751 113.163 39.9131C113.163 39.9131 113.635 39.3649 114.745 39.6137L115.359 39.107C115.359 39.107 114.193 38.9535 113.701 39.1239C113.701 39.1239 114.269 38.6387 115.526 38.9919L116.202 38.5881C116.202 38.5881 115.208 38.3746 114.617 38.4514C114.617 38.4514 115.242 38.1152 116.4 38.479L116.883 38.2626C116.883 38.2626 116.156 38.1198 115.942 38.0967C115.729 38.0737 115.718 38.0154 115.718 38.0154C116.179 37.9387 116.652 37.9919 117.084 38.1689C117.084 38.1689 118.122 37.7927 118.104 37.7283Z" fill="#0097E6"/>
<path opacity="0.1" d="M82.6603 34.0941C82.6603 34.0941 84.0037 28.3994 79.8522 28.3795C79.8522 28.3795 79.1628 28.1215 78.7283 28.7111C78.7283 28.7111 79.0246 28.7741 78.8235 29.336C78.7539 29.5347 78.7075 29.7408 78.6853 29.9501C78.6556 30.2355 78.7197 30.5228 78.868 30.7685C78.868 30.7685 79.2564 32.5034 81.7852 33.5905C81.7852 33.5905 82.2826 34.1555 82.4331 34.1616L82.1874 33.1191C82.1874 33.1191 81.429 33.3295 80.8916 32.9656C80.8916 32.9656 82.1552 33.1514 82.1567 32.9656C82.1567 32.9272 82.0032 32.419 82.0032 32.419C82.0032 32.419 80.6843 32.7783 79.8706 32.1933C79.8706 32.1933 81.3461 32.6171 81.9464 32.2255L81.67 31.4701C81.67 31.4701 80.2882 31.92 79.3424 31.289C79.3424 31.289 80.9008 31.679 81.5979 31.3105L81.2217 30.6073C81.2217 30.6073 79.8706 31.0188 79.083 30.4891C79.083 30.4891 80.9254 30.7562 81.125 30.4522C81.125 30.4522 80.7411 29.8273 80.5584 29.7106C80.5584 29.7106 79.5819 29.9839 79.152 29.6354C79.152 29.6354 80.4033 29.683 80.4325 29.551C80.4325 29.551 79.7155 28.8708 79.1689 28.7173C79.6783 28.8332 80.1487 29.0798 80.5339 29.4327C80.5282 29.111 80.429 28.7978 80.2483 28.5315C80.2483 28.5315 80.8072 28.7157 80.7089 29.6062C80.7089 29.6062 81.2463 30.159 81.2631 30.2849C81.2631 30.2849 81.4858 29.4266 81.343 28.857C81.343 28.857 81.8036 29.4158 81.3691 30.4676L81.7621 31.1661C81.7621 31.1661 82.1183 30.0453 82.0277 29.5295C82.0277 29.5295 82.41 30.1712 81.8466 31.3504L82.1306 32.0858C82.1306 32.0858 82.5098 31.1431 82.5344 30.5505C82.5344 30.5505 82.7601 31.223 82.2028 32.3023L82.3348 32.8151C82.3348 32.8151 82.5989 32.1227 82.6572 31.9169C82.7156 31.7112 82.7755 31.7097 82.7755 31.7097C82.7731 32.1768 82.6407 32.634 82.3932 33.0301C82.3932 33.0301 82.5943 34.1017 82.6603 34.0941Z" fill="#0097E6"/>
<path opacity="0.1" d="M69.8831 36.0347C69.8831 36.0347 65.1972 32.5295 63.5222 36.3264C63.5222 36.3264 63.0109 36.8561 63.3778 37.4902C63.3778 37.4902 63.5529 37.243 63.992 37.653C64.1475 37.7977 64.3196 37.9234 64.5048 38.0276C64.7555 38.1672 65.0451 38.2211 65.3293 38.1811C65.3293 38.1811 67.0734 38.5174 69.0817 36.6274C69.0817 36.6274 69.7987 36.3971 69.8662 36.2619L68.8084 36.0762C68.8084 36.0762 68.6978 36.8546 68.1528 37.2031C68.1528 37.2031 68.8268 36.1192 68.6518 36.0409C68.6165 36.024 68.0883 35.9641 68.0883 35.9641C68.0883 35.9641 67.8918 37.3183 67.032 37.8295C67.032 37.8295 68.01 36.6458 67.8887 35.9395L67.0857 35.8965C67.0857 35.8965 66.9491 37.3382 65.991 37.9585C65.991 37.9585 66.969 36.6857 66.9122 35.8996L66.1169 35.9641C66.1169 35.9641 65.9557 37.3659 65.1558 37.8756C65.1558 37.8756 66.1369 36.2911 65.9357 35.9902C65.9357 35.9902 65.2095 36.0931 65.0299 36.2128C65.0299 36.2128 64.8902 37.2169 64.3988 37.4718C64.3988 37.4718 64.9439 36.3433 64.8334 36.265C64.8334 36.265 63.9229 36.6504 63.5651 37.0895C63.8746 36.6691 64.2885 36.3367 64.7658 36.1253C64.4688 36.0019 64.1423 35.9677 63.8262 36.027C63.8262 36.027 64.2161 35.5879 64.9869 36.0347C64.9869 36.0347 65.7085 35.763 65.8313 35.7967C65.8313 35.7967 65.1327 35.2486 64.5539 35.1534C64.5539 35.1534 65.251 34.9538 66.0417 35.7676L66.8385 35.6862C66.8385 35.6862 65.9526 34.9185 65.4444 34.7895C65.4444 34.7895 66.186 34.6959 67.0412 35.6816L67.8273 35.7169C67.8273 35.7169 67.1164 34.9922 66.5806 34.7312C66.5806 34.7312 67.2853 34.7926 68.053 35.7338L68.5765 35.8182C68.5765 35.8182 68.0468 35.2993 67.881 35.1642C67.7152 35.0291 67.7382 34.9723 67.7382 34.9723C68.1654 35.1614 68.5316 35.4654 68.7961 35.8505C68.7961 35.8505 69.8632 36.0977 69.8831 36.0347Z" fill="#0097E6"/>
<path opacity="0.1" d="M85.4838 3.46838C85.4838 3.46838 80.7979 -0.0383625 79.1229 3.7601C79.1229 3.7601 78.6116 4.2898 78.9785 4.9239C78.9785 4.9239 79.1536 4.67671 79.5927 5.08665C79.749 5.2306 79.9216 5.35581 80.107 5.45974C80.3577 5.59947 80.6473 5.65339 80.9315 5.61327C80.9315 5.61327 82.6757 5.94951 84.6839 4.05796C84.6839 4.05796 85.4009 3.82919 85.4669 3.69255L84.4091 3.50984C84.4091 3.50984 84.3001 4.28826 83.7535 4.63679C83.7535 4.63679 84.429 3.55283 84.254 3.47453C84.2187 3.45764 83.6905 3.39776 83.6905 3.39776C83.6905 3.39776 83.4879 4.75501 82.6281 5.26321C82.6281 5.26321 83.6046 4.07945 83.4848 3.37319L82.6818 3.3302C82.6818 3.3302 82.5436 4.7719 81.5871 5.39065C81.5871 5.39065 82.5651 4.11784 82.5083 3.33174L81.7145 3.39622C81.7145 3.39622 81.5518 4.79953 80.7519 5.30927C80.7519 5.30927 81.7345 3.72479 81.5334 3.42386C81.5334 3.42386 80.8071 3.52673 80.6275 3.64648C80.6275 3.64648 80.4878 4.65061 79.9965 4.90547C79.9965 4.90547 80.5415 3.77699 80.431 3.69715C80.431 3.69715 79.5205 4.08406 79.1628 4.52317C79.4718 4.10229 79.8858 3.76982 80.3634 3.55897C80.0661 3.43461 79.7388 3.40044 79.4223 3.46071C79.4223 3.46071 79.8138 3.0216 80.5845 3.46838C80.5845 3.46838 81.3061 3.19509 81.429 3.2304C81.429 3.2304 80.7304 2.68228 80.1516 2.58556C80.1516 2.58556 80.8471 2.3875 81.6378 3.1997L82.4346 3.11832C82.4346 3.11832 81.5503 2.35065 81.0405 2.22014C81.0405 2.22014 81.7821 2.12802 82.6388 3.11372L83.4249 3.14749C83.4249 3.14749 82.7141 2.42281 82.1767 2.16333C82.1767 2.16333 82.8829 2.22475 83.6506 3.16592L84.1726 3.25036C84.1726 3.25036 83.6414 2.73756 83.4756 2.60552C83.3098 2.47348 83.3328 2.41513 83.3328 2.41513C83.7601 2.60407 84.1263 2.90815 84.3907 3.29335C84.3907 3.29335 85.4577 3.52673 85.4838 3.46838Z" fill="#0097E6"/>
<path opacity="0.1" d="M103.389 7.91013C103.389 7.91013 101.516 2.36597 97.9831 4.54464C97.9831 4.54464 97.2615 4.69817 97.2047 5.42132C97.2047 5.42132 97.4888 5.31692 97.6147 5.90035C97.6614 6.10789 97.732 6.30933 97.825 6.50068C97.9519 6.75819 98.1587 6.96771 98.4146 7.09793C98.4146 7.09793 99.6613 8.36459 102.388 7.94544C102.388 7.94544 103.108 8.16346 103.24 8.08823L102.473 7.33437C102.473 7.33437 101.941 7.9132 101.293 7.89017C101.293 7.89017 102.465 7.38043 102.368 7.21615C102.348 7.18391 101.947 6.83538 101.947 6.83538C101.947 6.83538 101.017 7.83797 100.019 7.77195C100.019 7.77195 101.495 7.35126 101.795 6.6972L101.16 6.20742C101.16 6.20742 100.229 7.31595 99.0886 7.28217C99.0886 7.28217 100.624 6.78932 101.012 6.10763L100.321 5.70997C100.321 5.70997 99.4003 6.77397 98.4453 6.74019C98.4453 6.74019 100.153 5.99248 100.157 5.63013C100.157 5.63013 99.5016 5.3031 99.2851 5.30003C99.2851 5.30003 98.6004 6.04775 98.0568 5.98019C98.0568 5.98019 99.1439 5.35838 99.0978 5.23094C99.0978 5.23094 98.1305 5.03288 97.5855 5.19256C98.0785 5.02091 98.6078 4.98122 99.1208 5.07741C98.9456 4.80703 98.6954 4.5936 98.4008 4.46326C98.4008 4.46326 98.9719 4.32355 99.3542 5.12807C99.3542 5.12807 100.103 5.31385 100.183 5.41058C100.183 5.41058 99.9192 4.5646 99.497 4.15619C99.497 4.15619 100.183 4.38803 100.371 5.51037L101.074 5.89421C101.074 5.89421 100.784 4.75652 100.434 4.35886C100.434 4.35886 101.098 4.70278 101.243 6.00015L101.872 6.47458C101.872 6.47458 101.697 5.47353 101.402 4.95458C101.402 4.95458 101.949 5.40597 102.047 6.61736L102.43 6.98278C102.43 6.98278 102.288 6.25502 102.23 6.04928C102.172 5.84355 102.219 5.82973 102.219 5.82973C102.463 6.22802 102.592 6.68607 102.592 7.1532C102.592 7.1532 103.335 7.95005 103.389 7.91013Z" fill="#0097E6"/>
<path opacity="0.1" d="M91.1646 8.1834C91.1646 8.1834 85.3456 7.53548 85.8262 11.664C85.8262 11.664 85.6527 12.3795 86.2868 12.7388C86.2868 12.7388 86.3129 12.4317 86.901 12.5699C87.1088 12.6146 87.321 12.6357 87.5335 12.6329C87.8206 12.6277 88.0982 12.529 88.3242 12.3519C88.3242 12.3519 89.9993 11.7577 90.7808 9.10922C90.7808 9.10922 91.2813 8.54881 91.2706 8.39681L90.2649 8.76837C90.2649 8.76837 90.572 9.49459 90.2649 10.0719C90.2649 10.0719 90.2972 8.796 90.1114 8.81596C90.073 8.81596 89.5878 9.03705 89.5878 9.03705C89.5878 9.03705 90.1037 10.3037 89.6216 11.1865C89.6216 11.1865 89.8642 9.66962 89.4021 9.12303L88.6881 9.49152C88.6881 9.49152 89.3023 10.8042 88.7879 11.8237C88.7879 11.8237 88.9875 10.23 88.5377 9.58364L87.8851 10.0442C87.8851 10.0442 88.4563 11.3355 88.0248 12.1815C88.0248 12.1815 88.0694 10.3175 87.7423 10.1594C87.7423 10.1594 87.1681 10.62 87.0745 10.8104C87.0745 10.8104 87.4629 11.747 87.1696 12.2152C87.1696 12.2152 87.0668 10.967 86.9317 10.9547C86.9317 10.9547 86.3421 11.7485 86.2561 12.3089C86.3094 11.7893 86.4978 11.2928 86.8027 10.8687C86.4841 10.9128 86.1853 11.0488 85.9429 11.2602C85.9429 11.2602 86.0565 10.6845 86.947 10.6783C86.947 10.6783 87.4307 10.078 87.5612 10.0458C87.5612 10.0458 86.6814 9.92756 86.1333 10.1379C86.1333 10.1379 86.6323 9.61281 87.7285 9.91835L88.3749 9.44392C88.3749 9.44392 87.2065 9.20748 86.7121 9.36101C86.7121 9.36101 87.3048 8.90041 88.5423 9.32263L89.2378 8.95261C89.2378 8.95261 88.2567 8.68853 87.6625 8.73613C87.6625 8.73613 88.3027 8.42905 89.4404 8.85435L89.9348 8.66243C89.9348 8.66243 89.2147 8.48279 89.0029 8.44901C88.791 8.41524 88.7833 8.35689 88.7833 8.35689C89.2475 8.30364 89.7173 8.38017 90.1406 8.57798C90.1406 8.57798 91.1754 8.24788 91.1646 8.1834Z" fill="#0097E6"/>
<path opacity="0.1" d="M142.077 53.3489C142.077 53.3489 136.261 52.701 136.742 56.825C136.742 56.825 136.568 57.5404 137.202 57.8997C137.202 57.8997 137.228 57.5926 137.816 57.7293C138.024 57.7755 138.236 57.7967 138.449 57.7922C138.736 57.7878 139.014 57.6891 139.24 57.5113C139.24 57.5113 140.915 56.9171 141.689 54.2701C141.689 54.2701 142.189 53.7082 142.178 53.5577L141.173 53.9278C141.173 53.9278 141.48 54.6555 141.173 55.2328C141.173 55.2328 141.205 53.9554 141.019 53.9769C140.981 53.9769 140.496 54.1964 140.496 54.1964C140.496 54.1964 141.011 55.4631 140.529 56.3459C140.529 56.3459 140.772 54.8305 140.31 54.2824L139.596 54.6524C139.596 54.6524 140.21 55.9652 139.697 56.9846C139.697 56.9846 139.895 55.3909 139.445 54.743L138.793 55.2036C138.793 55.2036 139.364 56.4949 138.933 57.3393C138.933 57.3393 138.977 55.4754 138.65 55.3188C138.65 55.3188 138.077 55.7794 137.982 55.9698C137.982 55.9698 138.372 56.9063 138.077 57.3746C138.077 57.3746 137.974 56.1264 137.839 56.1141C137.839 56.1141 137.25 56.9079 137.164 57.4683C137.217 56.9487 137.406 56.4522 137.71 56.0281C137.392 56.0714 137.093 56.2075 136.851 56.4196C136.851 56.4196 136.964 55.8423 137.855 55.8362C137.855 55.8362 138.34 55.2359 138.469 55.2052C138.469 55.2052 137.589 55.0854 137.041 55.2958C137.041 55.2958 137.54 54.7722 138.638 55.0777L139.283 54.6033C139.283 54.6033 138.128 54.3853 137.626 54.5358C137.626 54.5358 138.219 54.0752 139.456 54.4958L140.152 54.1274C140.152 54.1274 139.171 53.8633 138.576 53.9109C138.576 53.9109 139.217 53.6038 140.354 54.0291L140.849 53.8356C140.849 53.8356 140.129 53.656 139.917 53.6238C139.705 53.5915 139.697 53.5316 139.697 53.5316C140.161 53.4774 140.631 53.5534 141.054 53.7512C141.054 53.7512 142.092 53.4149 142.077 53.3489Z" fill="#0097E6"/>
<path opacity="0.1" d="M150.968 58.781C150.968 58.781 145.152 58.1346 145.633 62.257C145.633 62.257 145.461 62.9725 146.093 63.3318C146.093 63.3318 146.12 63.0247 146.708 63.1629C146.915 63.208 147.127 63.2286 147.339 63.2243C147.624 63.2184 147.901 63.1204 148.126 62.9449C148.126 62.9449 149.8 62.3507 150.574 59.7022C150.574 59.7022 151.076 59.1418 151.063 58.9898L150.058 59.3598C150.058 59.3598 150.365 60.0876 150.058 60.6649C150.058 60.6649 150.09 59.389 149.904 59.4089C149.866 59.4089 149.381 59.6285 149.381 59.6285C149.381 59.6285 149.896 60.8952 149.414 61.778C149.414 61.778 149.657 60.2626 149.195 59.716L148.481 60.0845C148.481 60.0845 149.095 61.3972 148.582 62.4167C148.582 62.4167 148.78 60.823 148.33 60.1766L147.678 60.6372C147.678 60.6372 148.249 61.9285 147.819 62.7744C147.819 62.7744 147.862 60.909 147.535 60.7524C147.535 60.7524 146.962 61.213 146.867 61.4034C146.867 61.4034 147.257 62.3399 146.962 62.8082C146.962 62.8082 146.86 61.56 146.724 61.5477C146.724 61.5477 146.135 62.3415 146.05 62.9019C146.104 62.3825 146.291 61.8861 146.595 61.4617C146.277 61.5057 145.978 61.6418 145.736 61.8532C145.736 61.8532 145.851 61.2759 146.741 61.2713C146.741 61.2713 147.225 60.671 147.355 60.6388C147.355 60.6388 146.476 60.5205 145.928 60.7309C145.928 60.7309 146.427 60.2058 147.524 60.5113L148.169 60.0369C148.169 60.0369 147.015 59.8189 146.513 59.9693C146.513 59.9693 147.105 59.5087 148.343 59.931L149.038 59.5609C149.038 59.5609 148.057 59.2969 147.463 59.3445C147.463 59.3445 148.103 59.0374 149.241 59.4627L149.735 59.2708C149.735 59.2708 149.015 59.0911 148.805 59.0573C148.595 59.0236 148.584 58.9652 148.584 58.9652C149.048 58.912 149.518 58.9885 149.941 59.1863C149.941 59.1863 150.984 58.847 150.968 58.781Z" fill="#0097E6"/>
<path opacity="0.1" d="M131.228 13.0259C131.228 13.0259 126.542 9.52072 124.867 13.3176C124.867 13.3176 124.356 13.8473 124.723 14.4814C124.723 14.4814 124.898 14.2343 125.337 14.6442C125.493 14.7889 125.665 14.9146 125.85 15.0188C126.101 15.1583 126.39 15.2122 126.674 15.1724C126.674 15.1724 128.418 15.5086 130.428 13.6186C130.428 13.6186 131.144 13.3883 131.211 13.2532L130.156 13.0628C130.156 13.0628 130.046 13.8412 129.501 14.1897C129.501 14.1897 130.175 13.1058 130 13.0275C129.965 13.0106 129.438 12.9507 129.438 12.9507C129.438 12.9507 129.24 14.3049 128.38 14.8162C128.38 14.8162 129.358 13.6324 129.237 12.9261L128.434 12.8831C128.434 12.8831 128.297 14.3248 127.339 14.9451C127.339 14.9451 128.319 13.6723 128.26 12.8862L127.465 12.9507C127.465 12.9507 127.311 14.3525 126.504 14.8622C126.504 14.8622 127.486 13.2777 127.284 12.9768C127.284 12.9768 126.558 13.0797 126.378 13.1994C126.378 13.1994 126.24 14.2035 125.748 14.4584C125.748 14.4584 126.292 13.3299 126.181 13.2516C126.181 13.2516 125.271 13.637 124.913 14.0761C125.223 13.6557 125.637 13.3233 126.114 13.1119C125.817 12.9885 125.49 12.9543 125.174 13.0136C125.174 13.0136 125.566 12.5745 126.337 13.0213C126.337 13.0213 127.057 12.7496 127.179 12.7833C127.179 12.7833 126.481 12.2352 125.902 12.14C125.902 12.14 126.599 11.9404 127.39 12.7542L128.187 12.6728C128.187 12.6728 127.302 11.9051 126.793 11.7762C126.793 11.7762 127.534 11.6825 128.389 12.6682L129.177 12.7035C129.177 12.7035 128.465 11.9788 127.929 11.7178C127.929 11.7178 128.635 11.7792 129.401 12.7204L129.925 12.8048C129.925 12.8048 129.395 12.2859 129.229 12.1508C129.063 12.0157 129.088 11.9711 129.088 11.9711C129.514 12.1606 129.88 12.4646 130.144 12.8494C130.144 12.8494 131.208 13.0889 131.228 13.0259Z" fill="#0097E6"/>
<path opacity="0.1" d="M134.849 38.3316C134.849 38.3316 133.233 32.7076 129.601 34.7266C129.601 34.7266 128.873 34.8387 128.782 35.5665C128.782 35.5665 129.071 35.4759 129.171 36.0639C129.208 36.2752 129.27 36.4813 129.355 36.6781C129.469 36.9426 129.666 37.1626 129.917 37.3045C129.917 37.3045 131.105 38.6249 133.847 38.3301C133.847 38.3301 134.557 38.5788 134.692 38.5113L133.966 37.7221C133.966 37.7221 133.408 38.2779 132.763 38.2257C132.763 38.2257 133.955 37.7651 133.863 37.6008C133.844 37.567 133.461 37.2001 133.461 37.2001C133.461 37.2001 132.487 38.1612 131.492 38.0491C131.492 38.0491 132.986 37.696 133.315 37.0604L132.701 36.5414C132.701 36.5414 131.721 37.6069 130.583 37.524C130.583 37.524 132.131 37.0987 132.558 36.437L131.885 36.0086C131.885 36.0086 130.91 37.0297 129.965 36.9529C129.965 36.9529 131.704 36.2819 131.726 35.9211C131.726 35.9211 131.084 35.5649 130.867 35.5526C130.867 35.5526 130.15 36.2681 129.605 36.176C129.605 36.176 130.72 35.6033 130.68 35.4743C130.68 35.4743 129.722 35.2333 129.171 35.3669C129.67 35.2188 130.199 35.2035 130.706 35.3223C130.544 35.0445 130.304 34.8204 130.015 34.6775C130.015 34.6775 130.592 34.5623 130.936 35.3838C130.936 35.3838 131.675 35.6018 131.752 35.7031C131.752 35.7031 131.526 34.8448 131.122 34.4196C131.122 34.4196 131.798 34.6806 131.934 35.8106L132.619 36.2267C132.619 36.2267 132.38 35.0751 132.048 34.6698C132.048 34.6698 132.696 35.0429 132.783 36.3449L133.398 36.8469C133.398 36.8469 133.267 35.8398 132.997 35.3116C132.997 35.3116 133.523 35.7876 133.566 37.0005L133.932 37.3843C133.932 37.3843 133.824 36.6504 133.778 36.4416C133.732 36.2328 133.778 36.2036 133.778 36.2036C134.006 36.612 134.115 37.0756 134.093 37.5425C134.093 37.5425 134.793 38.3685 134.849 38.3316Z" fill="#0097E6"/>
<path opacity="0.1" d="M98.8568 51.0044C98.8568 51.0044 95.72 46.0636 92.8075 49.0207C92.8075 49.0207 92.1411 49.3278 92.2578 50.0571C92.2578 50.0571 92.5112 49.8882 92.7722 50.4256C92.866 50.616 92.9825 50.7944 93.1192 50.9568C93.3022 51.1785 93.5531 51.3338 93.8331 51.399C93.8331 51.399 95.3454 52.3325 97.8941 51.2762C97.8941 51.2762 98.6449 51.3161 98.7554 51.2132L97.8342 50.6605C97.8342 50.6605 97.455 51.3514 96.8209 51.4819C96.8209 51.4819 97.8373 50.7142 97.7007 50.573C97.6746 50.5453 97.2017 50.3027 97.2017 50.3027C97.2017 50.3027 96.5369 51.4972 95.5512 51.6707C95.5512 51.6707 96.8854 50.9107 97.0236 50.2076L96.2881 49.8836C96.2881 49.8836 95.6479 51.181 94.5332 51.4189C94.5332 51.4189 95.8997 50.576 96.1223 49.8206L95.3546 49.5995C95.3546 49.5995 94.7067 50.8539 93.7778 51.0459C93.7778 51.0459 95.2579 49.9128 95.1765 49.5596C95.1765 49.5596 94.4611 49.3984 94.2553 49.4476C94.2553 49.4476 93.7686 50.3365 93.219 50.401C93.219 50.401 94.1279 49.5381 94.0527 49.4245C94.0527 49.4245 93.0654 49.4629 92.5741 49.7469C93.0124 49.463 93.5174 49.2989 94.0388 49.271C93.8054 49.05 93.5124 48.9022 93.1959 48.8457C93.1959 48.8457 93.7164 48.5739 94.2707 49.2648C94.2707 49.2648 95.0383 49.2648 95.1443 49.3416C95.1443 49.3416 94.6837 48.5739 94.1786 48.2868C94.1786 48.2868 94.9002 48.3482 95.3485 49.3938L96.1238 49.5995C96.1238 49.5995 95.5696 48.5632 95.1381 48.2669C95.1381 48.2669 95.8644 48.4419 96.3142 49.6686L97.0389 49.9757C97.0389 49.9757 96.6305 49.0468 96.2206 48.6123C96.2206 48.6123 96.8593 48.9194 97.2416 50.0724L97.7022 50.3381C97.7022 50.3381 97.3951 49.664 97.2861 49.4783C97.1771 49.2925 97.2201 49.2495 97.2201 49.2495C97.5523 49.5777 97.7868 49.9918 97.8972 50.4455C97.8972 50.4455 98.8153 51.0566 98.8568 51.0044Z" fill="#0097E6"/>
<path d="M119.472 25.7601C119.472 25.7601 116.489 20.7257 113.484 23.5907C113.484 23.5907 112.809 23.8824 112.904 24.6102C112.904 24.6102 113.16 24.4474 113.406 24.9925C113.494 25.1862 113.604 25.3687 113.736 25.536C113.912 25.7624 114.158 25.9243 114.436 25.9966C114.436 25.9966 115.918 26.9761 118.499 25.9966C118.499 25.9966 119.248 26.0595 119.361 25.9597L118.46 25.3794C118.46 25.3794 118.061 26.0565 117.422 26.1685C117.422 26.1685 118.462 25.427 118.331 25.2873C118.304 25.2581 117.84 25.0001 117.84 25.0001C117.84 25.0001 117.138 26.1747 116.151 26.3175C116.151 26.3175 117.508 25.5989 117.666 24.9019L116.942 24.561C116.942 24.561 116.262 25.84 115.139 26.0442C115.139 26.0442 116.532 25.2443 116.777 24.4965L116.019 24.2509C116.019 24.2509 115.331 25.4792 114.398 25.6481C114.398 25.6481 115.911 24.561 115.841 24.2064C115.841 24.2064 115.131 24.0221 114.92 24.0651C114.92 24.0651 114.405 24.9387 113.854 24.9863C113.854 24.9863 114.789 24.1542 114.718 24.0375C114.718 24.0375 113.73 24.0452 113.231 24.3138C113.678 24.0442 114.187 23.896 114.709 23.8839C114.482 23.6557 114.194 23.4988 113.879 23.4325C113.879 23.4325 114.408 23.1761 114.953 23.8839C114.953 23.8839 115.721 23.91 115.824 23.9883C115.824 23.9883 115.389 23.2207 114.892 22.9044C114.892 22.9044 115.611 22.9873 116.027 24.0467L116.794 24.277C116.794 24.277 116.274 23.2237 115.85 22.9136C115.85 22.9136 116.572 23.1117 116.983 24.3507L117.697 24.6839C117.697 24.6839 117.318 23.7427 116.929 23.302C116.929 23.302 117.557 23.6291 117.906 24.7929L118.356 25.0723C118.356 25.0723 118.067 24.3891 117.966 24.2002C117.864 24.0114 117.907 23.9699 117.907 23.9699C118.229 24.3082 118.451 24.7291 118.548 25.1859C118.548 25.1859 119.427 25.8108 119.472 25.7601Z" fill="#0097E6"/>
<path d="M100.598 36.3464C100.598 36.3464 100.751 30.4967 96.6873 31.3212C96.6873 31.3212 95.9595 31.2091 95.6525 31.8755C95.6525 31.8755 95.9595 31.8755 95.8736 32.4666C95.8454 32.6774 95.8423 32.8907 95.8643 33.1022C95.8921 33.3891 96.0135 33.6589 96.2098 33.8699C96.2098 33.8699 96.9422 35.4882 99.6459 36.0378C99.6459 36.0378 100.246 36.4907 100.397 36.4662L99.9361 35.4958C99.9361 35.4958 99.2375 35.8551 98.6372 35.611C98.6372 35.611 99.9115 35.5358 99.8762 35.3484C99.8762 35.3101 99.6121 34.8433 99.6121 34.8433C99.6121 34.8433 98.3931 35.4651 97.4795 35.0567C97.4795 35.0567 99.0149 35.1719 99.517 34.6667L99.0886 33.9866C99.0886 33.9866 97.8327 34.7051 96.7733 34.2814C96.7733 34.2814 98.3777 34.3459 98.9857 33.8438L98.4744 33.2297C98.4744 33.2297 97.2354 33.9083 96.3572 33.549C96.3572 33.549 98.218 33.4369 98.3532 33.0976C98.3532 33.0976 97.8496 32.5648 97.6469 32.4835C97.6469 32.4835 96.7472 32.9441 96.2559 32.6954C96.2559 32.6954 97.4841 32.4896 97.4918 32.353C97.4918 32.353 96.652 31.8325 96.0854 31.7941C96.6079 31.8034 97.1187 31.9495 97.5671 32.2179C97.4971 31.904 97.337 31.6175 97.1065 31.3934C97.1065 31.3934 97.6914 31.4594 97.7713 32.3453C97.7713 32.3453 98.4115 32.7783 98.453 32.898C98.453 32.898 98.4975 32.0121 98.2411 31.484C98.2411 31.484 98.8061 31.9369 98.5942 33.0546L99.1208 33.6596C99.1208 33.6596 99.2406 32.4896 99.0487 32.0029C99.0487 32.0029 99.5523 32.5541 99.2421 33.8223L99.6674 34.484C99.6674 34.484 99.8486 33.4845 99.7519 32.8965C99.7519 32.8965 100.108 33.5106 99.7826 34.679L100.016 35.155C100.016 35.155 100.134 34.4226 100.15 34.2092C100.165 33.9958 100.223 33.982 100.223 33.982C100.316 34.44 100.279 34.9147 100.117 35.353C100.117 35.353 100.53 36.3664 100.598 36.3464Z" fill="#0097E6"/>
<path opacity="0.1" d="M107.317 110.676C109.6 110.676 111.451 110.363 111.451 109.977C111.451 109.591 109.6 109.279 107.317 109.279C105.033 109.279 103.182 109.591 103.182 109.977C103.182 110.363 105.033 110.676 107.317 110.676Z" fill="#0097E6"/>
<path opacity="0.1" d="M92.244 121.282C94.5275 121.282 96.3787 120.969 96.3787 120.584C96.3787 120.198 94.5275 119.885 92.244 119.885C89.9605 119.885 88.1093 120.198 88.1093 120.584C88.1093 120.969 89.9605 121.282 92.244 121.282Z" fill="#0097E6"/>
<path opacity="0.1" d="M14.3003 115.849C16.5838 115.849 18.435 115.536 18.435 115.15C18.435 114.764 16.5838 114.451 14.3003 114.451C12.0168 114.451 10.1656 114.764 10.1656 115.15C10.1656 115.536 12.0168 115.849 14.3003 115.849Z" fill="#0097E6"/>
<path opacity="0.1" d="M123.605 120.583C125.889 120.583 127.74 120.271 127.74 119.885C127.74 119.499 125.889 119.186 123.605 119.186C121.322 119.186 119.47 119.499 119.47 119.885C119.47 120.271 121.322 120.583 123.605 120.583Z" fill="#0097E6"/>
<path d="M127.91 112.065C131.32 112.065 134.084 111.598 134.084 111.021C134.084 110.445 131.32 109.977 127.91 109.977C124.501 109.977 121.737 110.445 121.737 111.021C121.737 111.598 124.501 112.065 127.91 112.065Z" fill="#0097E6"/>
<path d="M130.47 109.312C130.752 109.083 130.957 108.774 131.058 108.425C131.134 108.072 130.984 107.65 130.648 107.521C130.27 107.376 129.866 107.637 129.559 107.901C129.252 108.166 128.904 108.468 128.503 108.413C128.709 108.226 128.863 107.989 128.95 107.725C129.037 107.461 129.054 107.179 129 106.907C128.983 106.794 128.935 106.687 128.862 106.6C128.652 106.375 128.273 106.472 128.021 106.649C127.222 107.211 127 108.295 126.995 109.271C126.915 108.919 126.983 108.552 126.981 108.196C126.98 107.84 126.88 107.429 126.574 107.241C126.387 107.137 126.175 107.084 125.96 107.088C125.601 107.075 125.2 107.111 124.956 107.373C124.649 107.699 124.731 108.247 124.995 108.602C125.259 108.956 125.662 109.185 126.034 109.434C126.331 109.611 126.585 109.853 126.777 110.142C126.799 110.182 126.817 110.224 126.831 110.267H129.082C129.586 110.014 130.053 109.692 130.47 109.312Z" fill="#0097E6"/>
<path d="M11.5244 111.903C11.5244 111.903 13.8811 111.83 14.5951 111.324C15.309 110.817 18.2231 110.214 18.3997 111.026C18.5762 111.838 21.9433 115.062 19.281 115.084C16.6187 115.105 13.095 114.669 12.3857 114.236C11.6764 113.803 11.5244 111.903 11.5244 111.903Z" fill="#A8A8A8"/>
<path opacity="0.2" d="M19.3255 114.801C16.6632 114.823 13.1396 114.387 12.4302 113.954C11.8898 113.625 11.6748 112.445 11.6027 111.9H11.5244C11.5244 111.9 11.6779 113.802 12.3826 114.233C13.0874 114.665 16.6156 115.102 19.2779 115.081C20.0456 115.081 20.3112 114.801 20.2974 114.396C20.1899 114.643 19.8966 114.797 19.3255 114.801Z" fill="black"/>
</g>
<defs>
<linearGradient id="paint0_linear" x1="34.2368" y1="66.5452" x2="82.1598" y2="66.5452" gradientUnits="userSpaceOnUse">
<stop stop-color="#808080" stop-opacity="0.25"/>
<stop offset="0.54" stop-color="#808080" stop-opacity="0.12"/>
<stop offset="1" stop-color="#808080" stop-opacity="0.1"/>
</linearGradient>
<clipPath id="clip0">
<rect width="155" height="121.282" fill="white"/>
</clipPath>
</defs>
</svg>
