<svg width="121" height="114" viewBox="0 0 121 114" fill="none" xmlns="http://www.w3.org/2000/svg">
<g clip-path="url(#clip0)">
<path d="M96.3722 80.9955C96.3722 80.9955 111.342 81.7751 107.855 86.5222C104.368 91.2693 95.2064 83.7375 95.2064 83.7375L96.3722 80.9955Z" fill="#FFB8B8"/>
<path d="M68.7863 35.7803L71.8332 36.5476C71.8332 36.5476 73.6106 41.9191 74.8801 46.779C76.1497 51.6389 78.6888 66.2186 78.6888 66.2186L98.3737 80.1161L96.0259 85.407L69.802 74.9954L63.962 51.8947L68.7863 35.7803Z" fill="#575A89"/>
<path opacity="0.2" d="M71.6531 45.3148L70.5174 69.2715L72.8871 76.3941L65.9455 71.2661L71.6531 45.3148Z" fill="black"/>
<path d="M75.7688 87.8323C75.7688 87.8323 79.0696 96.7848 79.5775 102.924C80.0853 109.062 80.5931 113.922 80.5931 113.922H65.1045L62.0576 109.318V113.922H44.03C44.03 113.922 38.9518 97.2963 40.983 95.2501C43.0143 93.2038 62.3115 84.5071 62.3115 84.5071L75.7688 87.8323Z" fill="#2F2E41"/>
<path d="M105.281 113.689H15.6572V114H105.281V113.689Z" fill="#3F3D56"/>
<path d="M56.3446 26.0604C61.6734 26.0604 65.9932 21.7087 65.9932 16.3406C65.9932 10.9725 61.6734 6.62085 56.3446 6.62085C51.0158 6.62085 46.696 10.9725 46.696 16.3406C46.696 21.7087 51.0158 26.0604 56.3446 26.0604Z" fill="#FFB8B8"/>
<path d="M48.9813 20.4333L48.2195 31.6878L57.8681 44.7328L62.6924 32.4551C62.6924 32.4551 58.3759 29.6415 60.915 23.7585L48.9813 20.4333Z" fill="#FFB8B8"/>
<path d="M77.1647 90.0063C77.1647 92.3093 70.817 95.8896 70.817 95.8896V97.1685L68.2779 98.4474L62.6922 87.1936L61.1697 99.4699C61.1697 99.4699 49.9967 101.262 46.4426 99.4699C42.887 97.6798 41.1099 98.4474 36.0317 96.6573C30.9535 94.8671 38.0633 70.8226 38.0633 70.8226L32.9851 33.7341L44.0794 28.146L44.664 27.8507L46.1896 27.5679L48.5282 27.1328L56.3445 32.4551L56.9738 35.7806L57.361 37.8272L59.3911 35.5242L60.9244 30.4443L71.8336 36.5483L68.787 61.1025C68.787 61.1025 77.1647 87.7049 77.1647 90.0063Z" fill="#575A89"/>
<path d="M39.8404 97.9357C39.8404 97.9357 51.5204 107.4 45.9343 109.19C40.3483 110.981 37.3013 99.4704 37.3013 99.4704L39.8404 97.9357Z" fill="#FFB8B8"/>
<path d="M35.524 34.2457L32.9849 33.7341C32.9849 33.7341 29.1762 35.7804 28.9223 39.8729C28.6684 43.9655 25.3676 72.6133 25.3676 72.6133L36.0318 101.517L44.6648 98.1917L36.2857 71.0786L42.6335 47.5465L35.524 34.2457Z" fill="#575A89"/>
<path d="M57.4613 42.0513C57.9725 42.0513 58.3868 41.6338 58.3868 41.1189C58.3868 40.604 57.9725 40.1865 57.4613 40.1865C56.9501 40.1865 56.5357 40.604 56.5357 41.1189C56.5357 41.6338 56.9501 42.0513 57.4613 42.0513Z" fill="#2F2E41"/>
<path d="M57.4613 48.1118C57.9725 48.1118 58.3868 47.6943 58.3868 47.1794C58.3868 46.6645 57.9725 46.247 57.4613 46.247C56.9501 46.247 56.5357 46.6645 56.5357 47.1794C56.5357 47.6943 56.9501 48.1118 57.4613 48.1118Z" fill="#2F2E41"/>
<path d="M62.7061 88.0487C63.2172 88.0487 63.6316 87.6313 63.6316 87.1163C63.6316 86.6014 63.2172 86.184 62.7061 86.184C62.1949 86.184 61.7805 86.6014 61.7805 87.1163C61.7805 87.6313 62.1949 88.0487 62.7061 88.0487Z" fill="#2F2E41"/>
<path d="M48.1984 6.38323L46.4148 5.6639C46.4148 5.6639 50.1442 1.52782 55.3329 1.88749L53.8735 0.269017C53.8735 0.269017 57.4407 -1.16961 60.6836 2.6068C62.3883 4.59197 64.3607 6.92545 65.5903 9.55407H67.5004L66.7032 11.3224L69.4935 13.0907L66.6296 12.7731C66.8002 13.7414 66.8264 14.73 66.7073 15.7062C66.5844 16.6826 66.0898 17.5728 65.3278 18.1888C65.3278 18.1888 63.1158 13.5764 63.1158 12.8571V14.6554C63.1158 14.6554 61.3322 13.0369 61.3322 11.9579L60.3593 13.2167H53.8735L54.8464 11.5983L51.117 12.1378L52.5764 10.1596L46.8023 18.328C46.8023 18.328 43.4962 9.08066 48.1984 6.38323Z" fill="#2F2E41"/>
<path d="M105.574 75.1412C114.094 75.1412 121 68.1839 121 59.6016C121 51.0192 114.094 44.0619 105.574 44.0619C97.0546 44.0619 90.1483 51.0192 90.1483 59.6016C90.1483 68.1839 97.0546 75.1412 105.574 75.1412Z" fill="#3F3D56"/>
<path opacity="0.1" d="M105.574 72.9657C112.901 72.9657 118.84 66.9824 118.84 59.6016C118.84 52.2208 112.901 46.2375 105.574 46.2375C98.2474 46.2375 92.3079 52.2208 92.3079 59.6016C92.3079 66.9824 98.2474 72.9657 105.574 72.9657Z" fill="black"/>
<path d="M104.938 67.4876V65.5425C103.962 65.5233 102.953 65.1765 102.364 64.6951L102.768 63.4048C103.467 63.9332 104.316 64.2232 105.191 64.2329C106.386 64.2329 107.193 63.4433 107.193 62.3456C107.193 61.2863 106.537 60.6316 105.292 60.0538C103.575 59.2835 102.515 58.3975 102.515 56.7221C102.515 55.1236 103.508 53.9103 105.056 53.6214V51.6763H106.1V53.5444C106.878 53.5551 107.636 53.7889 108.287 54.2184L107.867 55.4895C107.242 55.0591 106.503 54.8307 105.746 54.8347C104.45 54.8347 103.962 55.7206 103.962 56.491C103.962 57.4924 104.585 57.9931 106.049 58.6865C107.782 59.4953 108.658 60.4967 108.658 62.2107C108.658 63.7321 107.732 65.1574 105.999 65.4846V67.4876H104.938Z" fill="#0097E6"/>
<path opacity="0.2" d="M38.5654 78.4551L44.735 97.8693L39.7987 77.6677L38.5654 78.4551Z" fill="black"/>
<path d="M7.11027 40.528H3.19416C3.02348 40.5278 2.85984 40.4595 2.73915 40.3379C2.61846 40.2163 2.55057 40.0514 2.55038 39.8795V34.2086C2.55057 34.0366 2.61846 33.8718 2.73915 33.7502C2.85984 33.6286 3.02348 33.5603 3.19416 33.5601H7.11027C7.28096 33.5603 7.44459 33.6286 7.56528 33.7502C7.68597 33.8718 7.75386 34.0366 7.75405 34.2086V39.8795C7.75386 40.0514 7.68597 40.2163 7.56528 40.3379C7.44459 40.4595 7.28096 40.5278 7.11027 40.528ZM3.19416 33.8709C3.10528 33.871 3.02006 33.9066 2.95721 33.9699C2.89437 34.0332 2.85901 34.119 2.8589 34.2086V39.8795C2.85901 39.969 2.89437 40.0549 2.95721 40.1182C3.02006 40.1815 3.10528 40.2171 3.19416 40.2172H7.11027C7.19916 40.2171 7.28437 40.1815 7.34722 40.1182C7.41007 40.0549 7.44542 39.969 7.44553 39.8795V34.2086C7.44542 34.119 7.41007 34.0332 7.34722 33.9699C7.28437 33.9066 7.19916 33.871 7.11027 33.8709H3.19416Z" fill="#3F3D56"/>
<path d="M14.2632 40.528H10.7267C10.5057 40.5277 10.2938 40.4392 10.1375 40.2818C9.98127 40.1243 9.89336 39.9109 9.8931 39.6883V28.2357C9.89336 28.013 9.98127 27.7996 10.1375 27.6422C10.2938 27.4848 10.5057 27.3962 10.7267 27.3959H14.2632C14.4842 27.3962 14.6961 27.4848 14.8523 27.6422C15.0086 27.7996 15.0965 28.013 15.0968 28.2357V39.6883C15.0965 39.9109 15.0086 40.1243 14.8523 40.2818C14.6961 40.4392 14.4842 40.5277 14.2632 40.528ZM10.7267 27.7067C10.5875 27.7069 10.454 27.7627 10.3556 27.8618C10.2571 27.961 10.2018 28.0954 10.2016 28.2357V39.6883C10.2018 39.8285 10.2571 39.963 10.3556 40.0621C10.454 40.1613 10.5875 40.2171 10.7267 40.2172H14.2632C14.4024 40.2171 14.5359 40.1613 14.6343 40.0621C14.7327 39.963 14.7881 39.8285 14.7883 39.6883V28.2357C14.7881 28.0954 14.7327 27.961 14.6343 27.8618C14.5359 27.7627 14.4024 27.7069 14.2632 27.7067L10.7267 27.7067Z" fill="#3F3D56"/>
<path d="M21.4693 40.528H18.206C17.9488 40.5277 17.7022 40.4247 17.5203 40.2415C17.3384 40.0582 17.2361 39.8098 17.2358 39.5507V22.7023C17.2361 22.4432 17.3384 22.1948 17.5203 22.0116C17.7022 21.8284 17.9488 21.7253 18.206 21.725H21.4693C21.7266 21.7253 21.9731 21.8284 22.155 22.0116C22.3369 22.1948 22.4392 22.4432 22.4395 22.7023V39.5507C22.4392 39.8098 22.3369 40.0582 22.155 40.2415C21.9731 40.4247 21.7266 40.5277 21.4693 40.528ZM18.206 22.0358C18.0305 22.036 17.8624 22.1063 17.7383 22.2313C17.6143 22.3562 17.5445 22.5256 17.5443 22.7023V39.5507C17.5445 39.7274 17.6143 39.8968 17.7383 40.0218C17.8624 40.1467 18.0305 40.217 18.206 40.2172H21.4693C21.6448 40.217 21.8129 40.1467 21.937 40.0218C22.061 39.8968 22.1308 39.7274 22.131 39.5507V22.7023C22.1308 22.5256 22.061 22.3562 21.937 22.2313C21.8129 22.1063 21.6448 22.036 21.4693 22.0358H18.206Z" fill="#3F3D56"/>
<path d="M6.62085 34.64H3.68377V39.4479H6.62085V34.64Z" fill="#0097E6"/>
<path d="M13.9635 28.5375H11.0264V39.4479H13.9635V28.5375Z" fill="#0097E6"/>
<path d="M21.3062 22.8666H18.3691V39.448H21.3062V22.8666Z" fill="#0097E6"/>
<path d="M111.529 22.6574H91.0125C90.9922 22.6574 90.9722 22.6534 90.9535 22.6456C90.9347 22.6378 90.9177 22.6263 90.9034 22.6119C90.8891 22.5974 90.8777 22.5803 90.87 22.5615C90.8622 22.5426 90.8582 22.5224 90.8582 22.502V1.52344C90.8582 1.48222 90.8745 1.4427 90.9034 1.41356C90.9323 1.38441 90.9716 1.36804 91.0125 1.36804C91.0534 1.36804 91.0927 1.38441 91.1216 1.41356C91.1505 1.4427 91.1668 1.48222 91.1668 1.52344V22.3466H111.529C111.57 22.3466 111.609 22.363 111.638 22.3921C111.667 22.4212 111.683 22.4608 111.683 22.502C111.683 22.5432 111.667 22.5827 111.638 22.6119C111.609 22.641 111.57 22.6574 111.529 22.6574Z" fill="#3F3D56"/>
<path d="M24.5271 42.7035H0.154259C0.134 42.7036 0.113938 42.6995 0.0952206 42.6917C0.0765027 42.6839 0.0594947 42.6725 0.0451694 42.658C0.0308441 42.6436 0.0194817 42.6265 0.0117313 42.6076C0.00398099 42.5888 -5.26418e-06 42.5686 5.21735e-09 42.5482V18.1509C5.21735e-09 18.1097 0.0162521 18.0701 0.0451812 18.041C0.0741102 18.0119 0.113347 17.9955 0.154259 17.9955C0.19517 17.9955 0.234407 18.0119 0.263336 18.041C0.292265 18.0701 0.308517 18.1097 0.308517 18.1509V42.3928H24.5271C24.568 42.3928 24.6073 42.4091 24.6362 42.4383C24.6651 42.4674 24.6814 42.5069 24.6814 42.5482C24.6814 42.5894 24.6651 42.6289 24.6362 42.658C24.6073 42.6872 24.568 42.7035 24.5271 42.7035Z" fill="#3F3D56"/>
<path d="M98.0927 20.7098H94.1766C94.0059 20.7097 93.8423 20.6413 93.7216 20.5197C93.6009 20.3981 93.533 20.2333 93.5328 20.0613V14.3904C93.533 14.2185 93.6009 14.0536 93.7216 13.932C93.8423 13.8104 94.0059 13.7421 94.1766 13.7419H98.0927C98.2634 13.7421 98.427 13.8105 98.5477 13.9321C98.6684 14.0536 98.7363 14.2185 98.7364 14.3904V20.0613C98.7362 20.2333 98.6684 20.3981 98.5477 20.5197C98.427 20.6412 98.2634 20.7096 98.0927 20.7098ZM94.1766 14.0527C94.0877 14.0528 94.0025 14.0884 93.9396 14.1517C93.8768 14.215 93.8414 14.3009 93.8413 14.3904V20.0613C93.8414 20.1509 93.8768 20.2367 93.9396 20.3C94.0025 20.3633 94.0877 20.399 94.1766 20.3991H98.0927C98.1816 20.3989 98.2668 20.3633 98.3296 20.3C98.3925 20.2367 98.4278 20.1509 98.4279 20.0613V14.3904C98.4278 14.3009 98.3925 14.215 98.3296 14.1517C98.2668 14.0884 98.1816 14.0528 98.0927 14.0527H94.1766Z" fill="#3F3D56"/>
<path d="M106.113 20.7098H102.508C102.296 20.7096 102.093 20.6246 101.943 20.4736C101.793 20.3226 101.709 20.1178 101.708 19.9043V9.6326C101.709 9.41904 101.793 9.21429 101.943 9.06327C102.093 8.91226 102.296 8.82732 102.508 8.82709H106.113C106.325 8.82732 106.528 8.91226 106.678 9.06327C106.828 9.21429 106.912 9.41904 106.912 9.6326V19.9043C106.912 20.1178 106.828 20.3226 106.678 20.4736C106.528 20.6246 106.325 20.7096 106.113 20.7098ZM102.508 9.13788C102.378 9.13802 102.253 9.19019 102.161 9.28293C102.069 9.37568 102.017 9.50144 102.017 9.6326V19.9043C102.017 20.0354 102.069 20.1612 102.161 20.254C102.253 20.3467 102.378 20.3989 102.508 20.3991H106.113C106.243 20.3989 106.368 20.3467 106.46 20.254C106.552 20.1612 106.603 20.0354 106.604 19.9043V9.6326C106.603 9.50144 106.552 9.37568 106.46 9.28294C106.368 9.19019 106.243 9.13802 106.113 9.13788H102.508Z" fill="#3F3D56"/>
<path d="M97.5327 14.8756H94.5956V19.6836H97.5327V14.8756Z" fill="#0097E6"/>
<path d="M105.779 10.1172H102.842V19.4198H105.779V10.1172Z" fill="#0097E6"/>
<path d="M96.103 12.0904C96.8698 12.0904 97.4914 11.4643 97.4914 10.6918C97.4914 9.91944 96.8698 9.29327 96.103 9.29327C95.3363 9.29327 94.7147 9.91944 94.7147 10.6918C94.7147 11.4643 95.3363 12.0904 96.103 12.0904Z" fill="#0097E6"/>
<path d="M104.279 6.80697C105.045 6.80697 105.667 6.18081 105.667 5.4084C105.667 4.63599 105.045 4.00983 104.279 4.00983C103.512 4.00983 102.89 4.63599 102.89 5.4084C102.89 6.18081 103.512 6.80697 104.279 6.80697Z" fill="#0097E6"/>
</g>
<defs>
<clipPath id="clip0">
<rect width="121" height="114" fill="white"/>
</clipPath>
</defs>
</svg>
