<svg width="179" height="94" viewBox="0 0 179 94" fill="none" xmlns="http://www.w3.org/2000/svg">
<g clip-path="url(#clip0)">
<path d="M15.998 89.4888L15.7581 89.3863C15.7054 89.3636 10.458 87.0713 7.99989 81.8737C5.5417 76.6757 6.74536 70.4174 6.7578 70.355L6.81445 70.0699L7.05427 70.1725C7.10699 70.1952 12.3543 72.4874 14.8125 77.6851C17.2707 82.883 16.067 89.1413 16.0546 89.2038L15.998 89.4888ZM8.39352 81.6317C10.4717 86.0264 14.6184 88.2791 15.669 88.7933C15.8688 87.5094 16.4952 82.3175 14.4189 77.9271C12.3427 73.5371 8.19442 71.2809 7.14335 70.7654C6.94348 72.0501 6.31725 77.2415 8.39352 81.6317Z" fill="#3F3D56"/>
<path d="M9.87843 80.0504C14.296 83.0807 15.9973 89.0997 15.9973 89.0997C15.9973 89.0997 10.5364 90.2056 6.11886 87.1753C1.70133 84.145 0 78.126 0 78.126C0 78.126 5.4609 77.02 9.87843 80.0504Z" fill="#D0CDE1"/>
<path d="M151.254 1.15764H101.994V0H79.6572V1.15764H30.1936C29.7561 1.15764 29.3228 1.25591 28.9185 1.44684C28.5142 1.63777 28.1469 1.91762 27.8375 2.27041C27.5281 2.6232 27.2826 3.04202 27.1152 3.50296C26.9477 3.96391 26.8615 4.45794 26.8615 4.95687V81.8658C26.8615 82.8734 27.2126 83.8398 27.8375 84.5523C28.4624 85.2648 29.3099 85.665 30.1936 85.665H151.254C151.692 85.665 152.125 85.5668 152.529 85.3758C152.934 85.1849 153.301 84.9051 153.61 84.5523C153.92 84.1995 154.165 83.7807 154.333 83.3197C154.5 82.8588 154.586 82.3647 154.586 81.8658V4.95687C154.586 4.45794 154.5 3.9639 154.333 3.50296C154.165 3.04202 153.92 2.62319 153.61 2.2704C153.301 1.91761 152.934 1.63776 152.529 1.44683C152.125 1.2559 151.692 1.15763 151.254 1.15764Z" fill="#3F3D56"/>
<path d="M150.119 7.87195H31.3288V84.2759H150.119V7.87195Z" fill="#0097E6"/>
<path d="M90.6224 5.78815C91.2953 5.78815 91.8407 5.1662 91.8407 4.39899C91.8407 3.63178 91.2953 3.00983 90.6224 3.00983C89.9495 3.00983 89.404 3.63178 89.404 4.39899C89.404 5.1662 89.9495 5.78815 90.6224 5.78815Z" fill="#0097E6"/>
<path d="M143.299 17.596H137.669V11.1757H143.299V17.596ZM137.913 17.3169H143.055V11.4548H137.913V17.3169Z" fill="#3F3D56"/>
<path d="M157.922 82.8867H146.329V81.9343C146.329 81.9095 146.324 81.885 146.316 81.8621C146.308 81.8391 146.295 81.8183 146.28 81.8008C146.265 81.7833 146.246 81.7693 146.226 81.7599C146.206 81.7504 146.185 81.7455 146.163 81.7455H142.188C142.166 81.7455 142.145 81.7504 142.125 81.7599C142.105 81.7693 142.086 81.7833 142.071 81.8008C142.056 81.8183 142.043 81.8391 142.035 81.8621C142.027 81.885 142.023 81.9095 142.023 81.9343V82.8867H139.538V81.9343C139.538 81.9095 139.534 81.885 139.526 81.8621C139.517 81.8391 139.505 81.8183 139.49 81.8008C139.474 81.7833 139.456 81.7693 139.436 81.7599C139.416 81.7504 139.394 81.7455 139.373 81.7455H135.398C135.376 81.7455 135.355 81.7504 135.334 81.7599C135.314 81.7693 135.296 81.7833 135.281 81.8008C135.265 81.8183 135.253 81.8391 135.245 81.8621C135.237 81.885 135.232 81.9095 135.232 81.9343V82.8867H132.748V81.9343C132.748 81.9095 132.744 81.885 132.735 81.8621C132.727 81.8391 132.715 81.8183 132.7 81.8008C132.684 81.7833 132.666 81.7693 132.646 81.7599C132.626 81.7504 132.604 81.7455 132.582 81.7455H128.608C128.586 81.7455 128.564 81.7504 128.544 81.7599C128.524 81.7693 128.506 81.7833 128.49 81.8008C128.475 81.8183 128.463 81.8391 128.455 81.8621C128.446 81.885 128.442 81.9095 128.442 81.9343V82.8867H125.958V81.9343C125.958 81.9095 125.953 81.885 125.945 81.8621C125.937 81.8391 125.925 81.8183 125.909 81.8008C125.894 81.7833 125.876 81.7693 125.855 81.7599C125.835 81.7504 125.814 81.7455 125.792 81.7455H121.817C121.796 81.7455 121.774 81.7504 121.754 81.7599C121.734 81.7693 121.716 81.7833 121.7 81.8008C121.685 81.8183 121.673 81.8391 121.664 81.8621C121.656 81.885 121.652 81.9095 121.652 81.9343V82.8867H119.167V81.9343C119.167 81.9095 119.163 81.885 119.155 81.8621C119.147 81.8391 119.134 81.8183 119.119 81.8008C119.104 81.7833 119.085 81.7693 119.065 81.7599C119.045 81.7504 119.024 81.7455 119.002 81.7455H115.027C115.005 81.7455 114.984 81.7504 114.964 81.7599C114.944 81.7693 114.925 81.7833 114.91 81.8008C114.895 81.8183 114.882 81.8391 114.874 81.8621C114.866 81.885 114.861 81.9095 114.861 81.9343V82.8867H112.377V81.9343C112.377 81.9095 112.373 81.885 112.365 81.8621C112.356 81.8391 112.344 81.8183 112.329 81.8008C112.313 81.7833 112.295 81.7693 112.275 81.7599C112.255 81.7504 112.233 81.7455 112.212 81.7455H108.237C108.215 81.7455 108.193 81.7504 108.173 81.7599C108.153 81.7693 108.135 81.7833 108.12 81.8008C108.104 81.8183 108.092 81.8391 108.084 81.8621C108.075 81.885 108.071 81.9095 108.071 81.9343V82.8867H105.587V81.9343C105.587 81.9095 105.583 81.885 105.574 81.8621C105.566 81.8391 105.554 81.8183 105.538 81.8008C105.523 81.7833 105.505 81.7693 105.485 81.7599C105.465 81.7504 105.443 81.7455 105.421 81.7455H74.2854C74.2637 81.7455 74.2421 81.7504 74.222 81.7599C74.2019 81.7693 74.1837 81.7833 74.1683 81.8008C74.1529 81.8183 74.1407 81.8391 74.1324 81.8621C74.1241 81.885 74.1198 81.9095 74.1198 81.9343V82.8867H71.6356V81.9343C71.6356 81.9095 71.6313 81.885 71.6229 81.8621C71.6146 81.8391 71.6024 81.8183 71.587 81.8008C71.5717 81.7833 71.5534 81.7693 71.5333 81.7599C71.5132 81.7504 71.4917 81.7455 71.4699 81.7455H67.4951C67.4734 81.7455 67.4519 81.7504 67.4318 81.7599C67.4117 81.7693 67.3934 81.7833 67.378 81.8008C67.3626 81.8183 67.3504 81.8391 67.3421 81.8621C67.3338 81.885 67.3295 81.9095 67.3295 81.9343V82.8867H64.8453V81.9343C64.8453 81.9095 64.841 81.885 64.8327 81.8621C64.8243 81.8391 64.8121 81.8183 64.7968 81.8008C64.7814 81.7833 64.7631 81.7693 64.743 81.7599C64.7229 81.7504 64.7014 81.7455 64.6797 81.7455H60.7049C60.6831 81.7455 60.6616 81.7504 60.6415 81.7599C60.6214 81.7693 60.6031 81.7833 60.5878 81.8008C60.5724 81.8183 60.5602 81.8391 60.5519 81.8621C60.5435 81.885 60.5392 81.9095 60.5392 81.9343V82.8867H58.055V81.9343C58.055 81.9095 58.0507 81.885 58.0424 81.8621C58.0341 81.8391 58.0219 81.8183 58.0065 81.8008C57.9911 81.7833 57.9729 81.7693 57.9528 81.7599C57.9327 81.7504 57.9111 81.7455 57.8894 81.7455H53.9146C53.8928 81.7455 53.8713 81.7504 53.8512 81.7599C53.8311 81.7693 53.8129 81.7833 53.7975 81.8008C53.7821 81.8183 53.7699 81.8391 53.7616 81.8621C53.7533 81.885 53.749 81.9095 53.749 81.9343V82.8867H51.2647V81.9343C51.2647 81.9095 51.2604 81.885 51.2521 81.8621C51.2438 81.8391 51.2316 81.8183 51.2162 81.8008C51.2008 81.7833 51.1826 81.7693 51.1625 81.7599C51.1424 81.7504 51.1209 81.7455 51.0991 81.7455H47.1243C47.1026 81.7455 47.081 81.7504 47.0609 81.7599C47.0408 81.7693 47.0226 81.7833 47.0072 81.8008C46.9918 81.8183 46.9796 81.8391 46.9713 81.8621C46.963 81.885 46.9587 81.9095 46.9587 81.9343V82.8867H44.4744V81.9343C44.4744 81.9095 44.4702 81.885 44.4618 81.8621C44.4535 81.8391 44.4413 81.8183 44.4259 81.8008C44.4106 81.7833 44.3923 81.7693 44.3722 81.7599C44.3521 81.7504 44.3306 81.7455 44.3088 81.7455H40.334C40.3123 81.7455 40.2908 81.7504 40.2707 81.7599C40.2506 81.7693 40.2323 81.7833 40.2169 81.8008C40.2016 81.8183 40.1894 81.8391 40.181 81.8621C40.1727 81.885 40.1684 81.9095 40.1684 81.9343V82.8867H37.6842V81.9343C37.6842 81.9095 37.6799 81.885 37.6716 81.8621C37.6632 81.8391 37.6511 81.8183 37.6357 81.8008C37.6203 81.7833 37.602 81.7693 37.5819 81.7599C37.5618 81.7504 37.5403 81.7455 37.5186 81.7455H33.5438C33.522 81.7455 33.5005 81.7504 33.4804 81.7599C33.4603 81.7693 33.442 81.7833 33.4267 81.8008C33.4113 81.8183 33.3991 81.8391 33.3908 81.8621C33.3824 81.885 33.3781 81.9095 33.3781 81.9343V82.8867H25.7598C24.7056 82.8867 23.6946 83.3642 22.9492 84.2141C22.2038 85.064 21.785 86.2167 21.785 87.4187V89.468C21.785 90.6699 22.2038 91.8227 22.9492 92.6726C23.6946 93.5225 24.7056 94 25.7598 94H157.922C158.976 94 159.987 93.5225 160.732 92.6726C161.478 91.8227 161.896 90.6699 161.896 89.468V87.4187C161.896 86.2167 161.478 85.064 160.732 84.2141C159.987 83.3642 158.976 82.8867 157.922 82.8867Z" fill="#3F3D56"/>
<path d="M178.245 89.3505H5.43622V89.9518H178.245V89.3505Z" fill="#3F3D56"/>
<path d="M142.776 50.4456H104.529V25.619H142.776V50.4456ZM104.908 50.0138H142.397V26.0508H104.908V50.0138Z" fill="#3F3D56"/>
<path d="M72.7201 55.411H38.6389V31.2321H72.7201V55.411ZM39.0176 54.9792H72.3414V31.6638H39.0176V54.9792Z" fill="#3F3D56"/>
<path d="M54.5613 46.128L54.5286 45.6452C54.431 44.6428 54.7241 43.5473 55.5382 42.4335C56.271 41.4494 56.678 40.7254 56.678 39.89C56.678 38.9431 56.157 38.3119 55.1311 38.2934C54.5444 38.2907 53.9709 38.4914 53.4865 38.8689L53.0957 37.6993C53.6332 37.2536 54.5613 36.9565 55.4242 36.9565C57.2968 36.9565 58.1435 38.2748 58.1435 39.6857C58.1435 40.9483 57.5247 41.858 56.7431 42.9161C56.0267 43.8815 55.7662 44.6984 55.815 45.6452L55.8313 46.128L54.5613 46.128ZM54.203 48.7273C54.1943 48.5758 54.2132 48.4239 54.2585 48.2812C54.3038 48.1385 54.3747 48.008 54.4665 47.8981C54.5583 47.7882 54.6691 47.7012 54.7919 47.6425C54.9147 47.5839 55.0468 47.555 55.18 47.5576C55.7499 47.5576 56.1407 48.0402 56.1407 48.7273C56.1461 48.8761 56.125 49.0247 56.0788 49.1641C56.0325 49.3035 55.962 49.4308 55.8715 49.5383C55.781 49.6458 55.6724 49.7314 55.5521 49.7898C55.4319 49.8483 55.3026 49.8784 55.1719 49.8784C55.0412 49.8784 54.9118 49.8483 54.7916 49.7898C54.6714 49.7314 54.5627 49.6458 54.4722 49.5383C54.3817 49.4308 54.3112 49.3035 54.265 49.1641C54.2187 49.0247 54.1976 48.8761 54.203 48.7273Z" fill="#D0CDE1"/>
<path d="M122.534 40.7309L122.502 40.2481C122.404 39.2457 122.697 38.1502 123.511 37.0364C124.244 36.0523 124.651 35.3284 124.651 34.4929C124.651 33.546 124.13 32.9148 123.104 32.8963C122.517 32.8936 121.944 33.0943 121.46 33.4718L121.069 32.3022C121.606 31.8565 122.534 31.5594 123.397 31.5594C125.27 31.5594 126.116 32.8777 126.116 34.2886C126.116 35.5512 125.498 36.4609 124.716 37.519C124 38.4844 123.739 39.3013 123.788 40.2481L123.804 40.7309L122.534 40.7309ZM122.176 43.3302C122.167 43.1787 122.186 43.0268 122.231 42.8841C122.277 42.7414 122.348 42.6109 122.439 42.501C122.531 42.3911 122.642 42.3041 122.765 42.2455C122.888 42.1868 123.02 42.1579 123.153 42.1605C123.723 42.1605 124.114 42.6431 124.114 43.3302C124.119 43.4791 124.098 43.6277 124.052 43.767C124.006 43.9064 123.935 44.0337 123.845 44.1412C123.754 44.2487 123.645 44.3343 123.525 44.3927C123.405 44.4512 123.276 44.4813 123.145 44.4813C123.014 44.4813 122.885 44.4512 122.765 44.3927C122.644 44.3343 122.536 44.2487 122.445 44.1412C122.355 44.0337 122.284 43.9064 122.238 43.767C122.192 43.6277 122.171 43.4791 122.176 43.3302Z" fill="#D0CDE1"/>
<path d="M91.393 74.942C100.417 74.942 107.732 66.6014 107.732 56.3129C107.732 46.0244 100.417 37.6838 91.393 37.6838C82.3695 37.6838 75.0545 46.0244 75.0545 56.3129C75.0545 66.6014 82.3695 74.942 91.393 74.942Z" fill="#2F2E41"/>
<path d="M85.0827 81.8237L80.1983 80.8155L81.7825 69.1872L86.6667 70.1954L85.0827 81.8237Z" fill="#2F2E41"/>
<path d="M96.4352 72.2116L91.551 71.2034L89.9668 81.1811L94.851 82.1893L96.4352 72.2116Z" fill="#2F2E41"/>
<path d="M98.1156 82.7329C98.2851 81.7754 96.6073 80.5814 94.368 80.066C92.1287 79.5506 90.176 79.9089 90.0065 80.8664C89.837 81.8238 91.5148 83.0178 93.7541 83.5332C95.9934 84.0486 97.9461 83.6903 98.1156 82.7329Z" fill="#2F2E41"/>
<path d="M87.9426 82.4321C88.0551 81.4638 86.3104 80.4015 84.0458 80.0594C81.7811 79.7174 79.8541 80.225 79.7416 81.1933C79.6291 82.1616 81.3737 83.2239 83.6384 83.566C85.903 83.908 87.8301 83.4004 87.9426 82.4321Z" fill="#2F2E41"/>
<path d="M92.5368 58.1231C95.6208 58.1231 98.1209 55.2725 98.1209 51.7562C98.1209 48.2398 95.6208 45.3893 92.5368 45.3893C89.4528 45.3893 86.9528 48.2398 86.9528 51.7562C86.9528 55.2725 89.4528 58.1231 92.5368 58.1231Z" fill="white"/>
<path d="M94.8319 51.5962C95.8599 51.5962 96.6933 50.646 96.6933 49.4739C96.6933 48.3018 95.8599 47.3516 94.8319 47.3516C93.8039 47.3516 92.9706 48.3018 92.9706 49.4739C92.9706 50.646 93.8039 51.5962 94.8319 51.5962Z" fill="#3F3D56"/>
<path d="M78.5042 36.0465C78.2585 29.1497 83.4717 23.3081 90.1481 22.9989C96.8246 22.6897 102.436 28.03 102.682 34.9267C102.928 41.8235 98.2866 43.3905 91.6101 43.6997C84.9336 44.0089 78.7499 42.9433 78.5042 36.0465Z" fill="white"/>
<path d="M107.052 55.7692C111.45 54.6199 114.759 52.4121 114.442 50.838C114.126 49.2638 110.304 48.9195 105.906 50.0688C101.509 51.2182 98.2002 53.426 98.5166 55.0001C98.8331 56.5742 102.655 56.9186 107.052 55.7692Z" fill="#2F2E41"/>
<path d="M74.9804 61.8504C79.3781 60.7011 82.6867 58.4933 82.3702 56.9191C82.0538 55.345 78.2322 55.0007 73.8345 56.15C69.4367 57.2994 66.1282 59.5072 66.4447 61.0813C66.7611 62.6554 70.5827 62.9998 74.9804 61.8504Z" fill="#2F2E41"/>
<path d="M86.9056 63.6544C86.8185 64.2029 86.827 64.7655 86.9307 65.3103C87.0343 65.855 87.231 66.3712 87.5096 66.8292C87.7882 67.2873 88.1432 67.6783 88.5543 67.9799C88.9654 68.2815 89.4246 68.4879 89.9056 68.5872C90.3867 68.6865 90.8802 68.6768 91.358 68.5586C91.8357 68.4404 92.2884 68.2161 92.6901 67.8985C93.0919 67.5809 93.4348 67.1761 93.6993 66.7074C93.9639 66.2386 94.1449 65.7151 94.232 65.1666C94.5982 62.8598 93.034 62.0436 91.0109 61.626C88.9878 61.2084 87.2718 61.3476 86.9056 63.6544Z" fill="white"/>
<path d="M56.1244 2.83289H29.2596V31.9701H56.1244V2.83289Z" fill="#D0CDE1"/>
<path d="M53.0717 6.31366H32.3125V24.4138H53.0717V6.31366Z" fill="white"/>
<path d="M43.5835 26.5492H32.2919V27.2268H43.5835V26.5492Z" fill="#F2F2F2"/>
<path d="M43.5835 28.582H32.2919V29.2596H43.5835V28.582Z" fill="#F2F2F2"/>
<path d="M36.0062 18.0791C37.3191 18.0791 38.3834 16.8656 38.3834 15.3686C38.3834 13.8717 37.3191 12.6582 36.0062 12.6582C34.6933 12.6582 33.629 13.8717 33.629 15.3686C33.629 16.8656 34.6933 18.0791 36.0062 18.0791Z" fill="#3F3D56"/>
<path d="M42.692 18.0791C44.0049 18.0791 45.0692 16.8656 45.0692 15.3686C45.0692 13.8717 44.0049 12.6582 42.692 12.6582C41.3791 12.6582 40.3148 13.8717 40.3148 15.3686C40.3148 16.8656 41.3791 18.0791 42.692 18.0791Z" fill="#0097E6"/>
<path d="M49.3779 18.0791C50.6907 18.0791 51.755 16.8656 51.755 15.3686C51.755 13.8717 50.6907 12.6582 49.3779 12.6582C48.065 12.6582 47.0007 13.8717 47.0007 15.3686C47.0007 16.8656 48.065 18.0791 49.3779 18.0791Z" fill="#E6E6E6"/>
<path d="M42.692 5.88213C43.3484 5.88213 43.8806 5.27538 43.8806 4.52691C43.8806 3.77844 43.3484 3.17169 42.692 3.17169C42.0356 3.17169 41.5034 3.77844 41.5034 4.52691C41.5034 5.27538 42.0356 5.88213 42.692 5.88213Z" fill="#3F3D56"/>
<path d="M68.9025 59.2511H42.0377V88.3883H68.9025V59.2511Z" fill="#D0CDE1"/>
<path d="M65.8497 62.7319H45.0905V80.8321H65.8497V62.7319Z" fill="white"/>
<path d="M56.9361 65.7064H49.6585V74.0043H56.9361V65.7064Z" fill="#0097E6"/>
<path d="M52.4445 67.7814V77.8575H61.2817V67.7814H52.4445ZM60.8984 77.4204H52.8278V68.2185H60.8984V77.4204Z" fill="#3F3D56"/>
<path d="M56.3615 82.6286H45.0699V83.3062H56.3615V82.6286Z" fill="#F2F2F2"/>
<path d="M55.4701 62.3003C56.1265 62.3003 56.6587 61.6935 56.6587 60.9451C56.6587 60.1966 56.1265 59.5898 55.4701 59.5898C54.8136 59.5898 54.2815 60.1966 54.2815 60.9451C54.2815 61.6935 54.8136 62.3003 55.4701 62.3003Z" fill="#3F3D56"/>
<path d="M138.847 50.5281H111.982V79.6653H138.847V50.5281Z" fill="#D0CDE1"/>
<path d="M135.795 54.0089H115.035V72.1091H135.795V54.0089Z" fill="white"/>
<path d="M127.648 68.1786H123.182V69.6875H127.648V68.1786Z" fill="#3F3D56"/>
<path d="M133.047 56.4304H117.783V57.077H133.047V56.4304Z" fill="#3F3D56"/>
<path d="M133.047 58.4782H117.783V59.1249H133.047V58.4782Z" fill="#3F3D56"/>
<path d="M133.047 60.5261H117.783V61.1728H133.047V60.5261Z" fill="#3F3D56"/>
<path d="M133.047 62.574H117.783V63.2207H133.047V62.574Z" fill="#3F3D56"/>
<path d="M133.047 64.6218H117.783V65.2685H133.047V64.6218Z" fill="#3F3D56"/>
<path d="M126.306 73.9056H115.015V74.5832H126.306V73.9056Z" fill="#F2F2F2"/>
<path d="M130.764 75.5997H115.015V76.2773H130.764V75.5997Z" fill="#F2F2F2"/>
<path d="M125.415 53.5774C126.071 53.5774 126.603 52.9706 126.603 52.2222C126.603 51.4737 126.071 50.8669 125.415 50.8669C124.758 50.8669 124.226 51.4737 124.226 52.2222C124.226 52.9706 124.758 53.5774 125.415 53.5774Z" fill="#3F3D56"/>
</g>
<defs>
<clipPath id="clip0">
<rect width="178.245" height="94" fill="white"/>
</clipPath>
</defs>
</svg>
